<?xml version="1.0" encoding="utf-8"?>
<!-- Generator: Adobe Illustrator 15.0.0, SVG Export Plug-In . SVG Version: 6.00 Build 0)  -->
<!DOCTYPE svg PUBLIC "-//W3C//DTD SVG 1.1//EN" "http://www.w3.org/Graphics/SVG/1.1/DTD/svg11.dtd">
<svg version="1.1" id="Calque_1" xmlns="http://www.w3.org/2000/svg" xmlns:xlink="http://www.w3.org/1999/xlink" x="0px" y="0px"
	 width="154.344px" height="129.5px" viewBox="0 0 154.344 129.5" enable-background="new 0 0 154.344 129.5" xml:space="preserve">
<g>
	<defs>
		<rect id="SVGID_1_" width="154.344" height="129.5"/>
	</defs>
	<clipPath id="SVGID_2_">
		<use xlink:href="#SVGID_1_"  overflow="visible"/>
	</clipPath>
	<path clip-path="url(#SVGID_2_)" fill="#F32063" d="M154.226,23.539c-0.313-1.262-1.219-2.293-2.43-2.765l-52.61-20.5
		c-1.695-0.661-3.623-0.094-4.691,1.38L77.172,25.565L59.849,1.653c-1.068-1.475-2.998-2.041-4.691-1.38l-52.61,20.5
		c-1.211,0.472-2.117,1.503-2.43,2.765c-0.313,1.261,0.008,2.597,0.858,3.58L24.13,53.866L6.678,79.897
		c-0.671,1.001-0.855,2.251-0.501,3.402s1.013,2.083,2.129,2.534L24,92.253v14.092c0,1.657,1.218,3.144,2.766,3.735l49.706,18.976
		c0.035,0.014,0.12,0.018,0.154,0.029c0.151,0.054,0.329,0.095,0.485,0.13c0.068,0.015,0.147,0.125,0.215,0.136
		c0.215,0.037,0.443,0.149,0.663,0.149H78h0.001h0.001h0.009c0.22,0,0.437-0.112,0.65-0.148c0.068-0.012,0.136-0.077,0.203-0.092
		c0.156-0.035,0.31-0.1,0.459-0.152c0.035-0.012,0.071-0.027,0.106-0.04l49.804-18.981c1.548-0.592,2.768-2.084,2.768-3.741V92.393
		l16.036-6.559c1.116-0.451,1.873-1.383,2.228-2.534c0.354-1.151,0.12-2.401-0.55-3.402l-18.103-26.961
		c0.006-0.089,0.008-0.176,0.008-0.266c0-0.13-0.022-0.256-0.035-0.383l21.785-25.169C154.221,26.135,154.539,24.799,154.226,23.539
		 M78.001,67.369L56.33,59.081l-15.824-6.663l36.667-13.709l37.725,14.105l-11.479,4.833L78.001,67.369z M55.183,8.849l16.84,23.244
		L29.596,47.956L10.734,26.168L55.183,8.849z M31.016,57.962l22.331,8.542l18.564,7.815L54.66,95.853L16.065,80.262L31.016,57.962z
		 M124.001,103.593l-46,17.444l-46-17.444v-8.107l22.225,8.9c0.487,0.195,1.093,0.291,1.596,0.291c1.188,0,2.395-0.53,3.171-1.499
		L78.147,79.3l19.143,23.878c0.775,0.969,1.939,1.499,3.128,1.499c0.503,0,1.21-0.096,1.696-0.291l21.887-8.762V103.593z
		 M101.684,95.853L84.433,74.32l21.966-9.249l18.859-7.213l15.02,22.403L101.684,95.853z M125.166,47.472L82.812,31.417L99.16,8.849
		l44.448,17.32L125.166,47.472z"/>
</g>
</svg>
