<?xml version="1.0" encoding="utf-8"?>
<!-- Generator: Adobe Illustrator 15.0.0, SVG Export Plug-In . SVG Version: 6.00 Build 0)  -->
<!DOCTYPE svg PUBLIC "-//W3C//DTD SVG 1.1//EN" "http://www.w3.org/Graphics/SVG/1.1/DTD/svg11.dtd">
<svg version="1.1" id="Calque_1" xmlns="http://www.w3.org/2000/svg" xmlns:xlink="http://www.w3.org/1999/xlink" x="0px" y="0px"
	 width="112px" height="113.253px" viewBox="0 0 112 113.253" enable-background="new 0 0 112 113.253" xml:space="preserve">
<g>
	<defs>
		<rect id="SVGID_1_" width="112" height="113.253"/>
	</defs>
	<clipPath id="SVGID_2_">
		<use xlink:href="#SVGID_1_"  overflow="visible"/>
	</clipPath>
	
		<circle clip-path="url(#SVGID_2_)" fill="none" stroke="#F32063" stroke-width="8" stroke-linecap="round" stroke-linejoin="round" stroke-miterlimit="10" cx="56.522" cy="57.148" r="13.052"/>
	
		<path clip-path="url(#SVGID_2_)" fill="none" stroke="#F32063" stroke-width="8" stroke-linecap="round" stroke-linejoin="round" stroke-miterlimit="10" d="
		M108,53.626h-0.1l-0.109-5.183l-17.333-4.471c0,0-1.247-1.383-2.041-2.956l8.695-14.936l-3.764-3.901l0.071-0.063l-1.807-1.733
		l-1.737-1.805l-0.071,0.071l-3.916-3.762l-15.505,9.008l0.172,0.173c-2.572-1.144-2.651-2.526-2.651-2.526L63.119,4.208L57.5,4.101
		V4L55,4.05L52.5,4v0.101l-5.246,0.108l-4.502,17.334l-2.435,2.354l-15.482-9.008L20.93,18.65l-0.065-0.07l-1.733,1.807
		l-1.806,1.737l0.071,0.07l-3.762,3.917l9.008,15.505l0.057-0.078c-0.43,0.883-1.2,1.789-1.2,2.711v-0.153L4.188,48.443L4.1,53.626
		H4l0.05,3l-0.05,3h0.1l0.109,5.184l16.647,4.289c0.467,1.425,1.016,2.751,1.647,4.094l-8.868,15.233l3.763,3.9l-0.071,0.063
		l1.807,1.732l1.737,1.806l0.071-0.071l3.916,3.762l15.265-8.869c1.342,0.632,2.73,1.182,4.155,1.647l4.603,16.647l5.619,0.108
		v0.102l2.5-0.052l2.5,0.052v-0.102l5.246-0.15l4.411-17.376h-0.153c1.284,0,2.534-1.028,3.744-1.666l14.394,8.384l3.916-3.752
		l0.071,0.075l1.737-1.805l1.807-1.735l-0.071-0.069l3.764-3.916l-8.881-15.323c0.367-0.871,1.016-1.764,1.016-2.668v0.006
		l17.312-4.347l0.089-5.184h0.1l-0.05-3L108,53.626z"/>
</g>
</svg>
