<?xml version="1.0" encoding="utf-8"?>
<!-- Generator: Adobe Illustrator 16.0.0, SVG Export Plug-In . SVG Version: 6.00 Build 0)  -->
<!DOCTYPE svg PUBLIC "-//W3C//DTD SVG 1.1//EN" "http://www.w3.org/Graphics/SVG/1.1/DTD/svg11.dtd">
<svg version="1.1" id="Calque_1" xmlns="http://www.w3.org/2000/svg" xmlns:xlink="http://www.w3.org/1999/xlink" x="0px" y="0px"
	 width="20px" height="20px" viewBox="0 0 20 20" enable-background="new 0 0 20 20" xml:space="preserve">
<path fill="#FFFFFF" d="M10.002,19.972c-0.094,0-0.188,0-0.283-0.004c-4.912-0.153-8.782-4.277-8.627-9.187
	c0.11-3.513,2.284-6.642,5.537-7.973c0.423-0.172,0.907,0.03,1.081,0.454c0.173,0.423-0.03,0.907-0.454,1.081
	c-2.648,1.083-4.418,3.63-4.507,6.489c-0.125,3.998,3.024,7.351,7.022,7.477c4.005,0.114,7.354-3.024,7.478-7.021
	c0.097-3.074-1.765-5.885-4.63-6.994c-0.428-0.166-0.641-0.646-0.474-1.072c0.164-0.427,0.644-0.64,1.072-0.474
	c3.521,1.364,5.808,4.817,5.688,8.593C18.755,16.157,14.789,19.972,10.002,19.972z"/>
<path fill="#FFFFFF" d="M9.923,9.748c-0.458,0-0.829-0.371-0.829-0.829V0.905c0-0.458,0.371-0.829,0.829-0.829
	c0.458,0,0.829,0.371,0.829,0.829v8.014C10.752,9.377,10.381,9.748,9.923,9.748z"/>
</svg>
