<?xml version="1.0" encoding="utf-8"?>
<!-- Generator: Adobe Illustrator 17.0.0, SVG Export Plug-In . SVG Version: 6.00 Build 0)  -->
<!DOCTYPE svg PUBLIC "-//W3C//DTD SVG 1.1//EN" "http://www.w3.org/Graphics/SVG/1.1/DTD/svg11.dtd" [
	<!ENTITY ns_extend "http://ns.adobe.com/Extensibility/1.0/">
	<!ENTITY ns_ai "http://ns.adobe.com/AdobeIllustrator/10.0/">
	<!ENTITY ns_graphs "http://ns.adobe.com/Graphs/1.0/">
	<!ENTITY ns_vars "http://ns.adobe.com/Variables/1.0/">
	<!ENTITY ns_imrep "http://ns.adobe.com/ImageReplacement/1.0/">
	<!ENTITY ns_sfw "http://ns.adobe.com/SaveForWeb/1.0/">
	<!ENTITY ns_custom "http://ns.adobe.com/GenericCustomNamespace/1.0/">
	<!ENTITY ns_adobe_xpath "http://ns.adobe.com/XPath/1.0/">
]>
<svg version="1.1" id="Calque_1" xmlns:x="&ns_extend;" xmlns:i="&ns_ai;" xmlns:graph="&ns_graphs;"
	 xmlns="http://www.w3.org/2000/svg" xmlns:xlink="http://www.w3.org/1999/xlink" x="0px" y="0px" width="768px" height="1024px"
	 viewBox="0 0 768 1024" enable-background="new 0 0 768 1024" xml:space="preserve">
<metadata>
	<sfw  xmlns="&ns_sfw;">
		<slices></slices>
		<sliceSourceBounds  y="-363.5" x="-364.516" width="768.032" height="768" bottomLeftOrigin="true"></sliceSourceBounds>
	</sfw>
</metadata>
<g id="Layer_571">
	<g>
		<path fill="#3C5B9B" d="M768.016,512c0,212.064-171.936,384-383.968,384C171.92,896-0.016,724.064-0.016,512
			c0-212.096,171.936-384,384.064-384C596.08,128,768.016,299.904,768.016,512z"/>
		<g>
			<path fill="#FFFFFF" d="M320,752h96c0,0,0-132.512,0-240h71.248L496,416h-76.288v-38.384c0-18.704,12.464-23.056,21.216-23.056
				s53.856,0,53.856,0v-82.256L420.624,272c-82.32,0-101.024,61.344-101.024,100.608V416H272v96h48C320,620.784,320,752,320,752z"/>
		</g>
		<path fill="#3C5B9B" d="M768.016,512c0,212.064-171.936,384-383.968,384C171.92,896-0.016,724.064-0.016,512
			c0-212.096,171.936-384,384.064-384C596.08,128,768.016,299.904,768.016,512z"/>
		<g>
			<path fill="#FFFFFF" d="M320,752h96c0,0,0-132.512,0-240h71.248L496,416h-76.288v-38.384c0-18.704,12.464-23.056,21.216-23.056
				s53.856,0,53.856,0v-82.256L420.624,272c-82.32,0-101.024,61.344-101.024,100.608V416H272v96h48C320,620.784,320,752,320,752z"/>
		</g>
		<path fill="#F32063" d="M768.016,512c0,212.064-171.936,384-383.968,384C171.92,896-0.016,724.064-0.016,512
			c0-212.096,171.936-384,384.064-384C596.08,128,768.016,299.904,768.016,512z"/>
		<g>
			<path fill="#FFFFFF" d="M320,752h96c0,0,0-132.512,0-240h71.248L496,416h-76.288v-38.384c0-18.704,12.464-23.056,21.216-23.056
				s53.856,0,53.856,0v-82.256L420.624,272c-82.32,0-101.024,61.344-101.024,100.608V416H272v96h48C320,620.784,320,752,320,752z"/>
		</g>
	</g>
</g>
<g id="Layer_1">
</g>
</svg>
