<?xml version="1.0" encoding="utf-8"?>
<!-- Generator: Adobe Illustrator 16.0.0, SVG Export Plug-In . SVG Version: 6.00 Build 0)  -->
<!DOCTYPE svg PUBLIC "-//W3C//DTD SVG 1.1//EN" "http://www.w3.org/Graphics/SVG/1.1/DTD/svg11.dtd">
<svg version="1.1" id="Calque_1" xmlns="http://www.w3.org/2000/svg" xmlns:xlink="http://www.w3.org/1999/xlink" x="0px" y="0px"
	 width="179.667px" height="126px" viewBox="0 0 179.667 126" enable-background="new 0 0 179.667 126" xml:space="preserve">
<g>
	<defs>
		<rect id="SVGID_1_" width="179.667" height="126"/>
	</defs>
	<clipPath id="SVGID_2_">
		<use xlink:href="#SVGID_1_"  overflow="visible"/>
	</clipPath>
	
		<path clip-path="url(#SVGID_2_)" fill="none" stroke="#F32063" stroke-width="8" stroke-linecap="round" stroke-linejoin="round" stroke-miterlimit="10" d="
		M164,71.25c0-0.084-0.012-0.166-0.013-0.25H4.013C4.012,71.084,4,71.166,4,71.25c0,13.776,15.644,29.316,39,38.277V118
		c0,2.209,1.791,4,4,4h74c2.209,0,4-1.791,4-4v-8.473C148.356,100.566,164,85.026,164,71.25z"/>
	
		<line clip-path="url(#SVGID_2_)" fill="none" stroke="#F32063" stroke-width="8" stroke-linecap="round" stroke-linejoin="round" stroke-miterlimit="10" x1="119.333" y1="71" x2="175.666" y2="23.667"/>
	
		<path clip-path="url(#SVGID_2_)" fill="none" stroke="#F32063" stroke-width="8" stroke-linecap="round" stroke-linejoin="round" stroke-miterlimit="10" d="
		M48.333,6c0,0-0.333,9,5,14.667c5.333,5.666-5.004,13.333-5.004,21"/>
	
		<path clip-path="url(#SVGID_2_)" fill="none" stroke="#F32063" stroke-width="8" stroke-linecap="round" stroke-linejoin="round" stroke-miterlimit="10" d="
		M73.333,4c0,0-0.333,9,5,14.667c5.333,5.666-5.004,13.333-5.004,21"/>
</g>
</svg>
