<?xml version="1.0" encoding="utf-8"?>
<!-- Generator: Adobe Illustrator 17.0.0, SVG Export Plug-In . SVG Version: 6.00 Build 0)  -->
<!DOCTYPE svg PUBLIC "-//W3C//DTD SVG 1.1//EN" "http://www.w3.org/Graphics/SVG/1.1/DTD/svg11.dtd" [
	<!ENTITY ns_extend "http://ns.adobe.com/Extensibility/1.0/">
	<!ENTITY ns_ai "http://ns.adobe.com/AdobeIllustrator/10.0/">
	<!ENTITY ns_graphs "http://ns.adobe.com/Graphs/1.0/">
	<!ENTITY ns_vars "http://ns.adobe.com/Variables/1.0/">
	<!ENTITY ns_imrep "http://ns.adobe.com/ImageReplacement/1.0/">
	<!ENTITY ns_sfw "http://ns.adobe.com/SaveForWeb/1.0/">
	<!ENTITY ns_custom "http://ns.adobe.com/GenericCustomNamespace/1.0/">
	<!ENTITY ns_adobe_xpath "http://ns.adobe.com/XPath/1.0/">
]>
<svg version="1.1" id="Calque_1" xmlns:x="&ns_extend;" xmlns:i="&ns_ai;" xmlns:graph="&ns_graphs;"
	 xmlns="http://www.w3.org/2000/svg" xmlns:xlink="http://www.w3.org/1999/xlink" x="0px" y="0px" width="768px" height="1024px"
	 viewBox="0 0 768 1024" enable-background="new 0 0 768 1024" xml:space="preserve">
<metadata>
	<sfw  xmlns="&ns_sfw;">
		<slices></slices>
		<sliceSourceBounds  y="-363.5" x="-364.5" height="768" width="768" bottomLeftOrigin="true"></sliceSourceBounds>
	</sfw>
</metadata>
<g id="Layer_552">
	<g>
		<circle fill="#F63D27" cx="384" cy="512" r="384"/>
		<g>
			<path fill="#FFFFFF" d="M510.992,594.656h20.624c5.536,0,10-4.48,10-10.016v-72.512h72.368c5.504,0,10-4.512,10-10.048v-20.64
				c0-5.536-4.496-10.048-10-10.048h-72.368V398.88c0-5.504-4.464-10.016-10-10.016h-20.624c-5.536,0-10.032,4.512-10.032,10.016
				v72.512h-72.368c-5.504,0-10,4.512-10,10.048v20.64c0,5.536,4.496,10.048,10,10.048h72.368v72.512
				C500.976,590.176,505.472,594.656,510.992,594.656z"/>
			<path fill="#FFFFFF" d="M225.904,720.96c18.304,4.672,38,7.04,58.432,7.04c18.368,0,35.872-2.416,52.064-7.104
				c50.464-14.656,83.088-51.872,83.088-94.864c0-41.232-13.216-65.904-48.72-91.072c-15.216-10.8-29.072-26.608-29.312-31.504
				c0-8.864,0.784-13.088,20.624-28.592c25.648-20.096,39.776-46.56,39.776-74.512c0-25.328-7.712-47.84-20.912-63.648h10.224
				c2.128,0,4.192-0.656,5.872-1.872l28.464-20.656c3.536-2.544,5.024-7.072,3.664-11.216c-1.328-4.144-5.168-6.96-9.52-6.96
				H292.336c-13.936,0-28.096,2.448-41.968,7.232c-46.4,16.032-78.848,55.632-78.848,96.336
				c0,57.584,44.528,101.248,104.096,102.624c-1.152,4.576-1.744,9.072-1.744,13.488c0,8.864,2.256,17.28,6.88,25.392
				c-0.56,0.032-1.056,0.032-1.664,0.032c-56.752,0-108,27.904-127.44,69.44c-5.088,10.784-7.648,21.712-7.648,32.48
				c0,10.496,2.688,20.576,7.936,30.064C164.192,694.992,190.432,712,225.904,720.96z M237.248,398
				c-2.752-21.104,1.648-40.048,12.16-52.032c6.784-7.76,15.648-11.84,25.6-11.84l1.152,0.032c28.128,0.816,55.024,32.224,60,70
				c2.784,21.168-1.904,41.04-12.528,53.2c-6.784,7.76-15.536,11.84-25.904,11.84c0,0,0,0-0.032,0h-0.432
				C269.696,468.384,242.192,435.728,237.248,398z M291.344,573.024l1.152,0.032c9.44,0.096,18.624,1.504,27.312,4.16
				c2.976,2.032,5.84,4,8.624,5.888c20.064,13.712,33.312,22.768,37.024,37.296c0.848,3.632,1.28,7.296,1.28,10.832
				c0,37.344-27.808,56.288-82.656,56.288c-41.6,0-74.128-25.552-74.128-58.176C209.968,599.344,248,573.024,291.344,573.024z"/>
		</g>
		<circle fill="#F63D27" cx="384" cy="512" r="384"/>
		<g>
			<path fill="#FFFFFF" d="M510.992,594.656h20.624c5.536,0,10-4.48,10-10.016v-72.512h72.368c5.504,0,10-4.512,10-10.048v-20.64
				c0-5.536-4.496-10.048-10-10.048h-72.368V398.88c0-5.504-4.464-10.016-10-10.016h-20.624c-5.536,0-10.032,4.512-10.032,10.016
				v72.512h-72.368c-5.504,0-10,4.512-10,10.048v20.64c0,5.536,4.496,10.048,10,10.048h72.368v72.512
				C500.976,590.176,505.472,594.656,510.992,594.656z"/>
			<path fill="#FFFFFF" d="M225.904,720.96c18.304,4.672,38,7.04,58.432,7.04c18.368,0,35.872-2.416,52.064-7.104
				c50.464-14.656,83.088-51.872,83.088-94.864c0-41.232-13.216-65.904-48.72-91.072c-15.216-10.8-29.072-26.608-29.312-31.504
				c0-8.864,0.784-13.088,20.624-28.592c25.648-20.096,39.776-46.56,39.776-74.512c0-25.328-7.712-47.84-20.912-63.648h10.224
				c2.128,0,4.192-0.656,5.872-1.872l28.464-20.656c3.536-2.544,5.024-7.072,3.664-11.216c-1.328-4.144-5.168-6.96-9.52-6.96
				H292.336c-13.936,0-28.096,2.448-41.968,7.232c-46.4,16.032-78.848,55.632-78.848,96.336
				c0,57.584,44.528,101.248,104.096,102.624c-1.152,4.576-1.744,9.072-1.744,13.488c0,8.864,2.256,17.28,6.88,25.392
				c-0.56,0.032-1.056,0.032-1.664,0.032c-56.752,0-108,27.904-127.44,69.44c-5.088,10.784-7.648,21.712-7.648,32.48
				c0,10.496,2.688,20.576,7.936,30.064C164.192,694.992,190.432,712,225.904,720.96z M237.248,398
				c-2.752-21.104,1.648-40.048,12.16-52.032c6.784-7.76,15.648-11.84,25.6-11.84l1.152,0.032c28.128,0.816,55.024,32.224,60,70
				c2.784,21.168-1.904,41.04-12.528,53.2c-6.784,7.76-15.536,11.84-25.904,11.84c0,0,0,0-0.032,0h-0.432
				C269.696,468.384,242.192,435.728,237.248,398z M291.344,573.024l1.152,0.032c9.44,0.096,18.624,1.504,27.312,4.16
				c2.976,2.032,5.84,4,8.624,5.888c20.064,13.712,33.312,22.768,37.024,37.296c0.848,3.632,1.28,7.296,1.28,10.832
				c0,37.344-27.808,56.288-82.656,56.288c-41.6,0-74.128-25.552-74.128-58.176C209.968,599.344,248,573.024,291.344,573.024z"/>
		</g>
		<circle fill="#F32063" cx="384" cy="512" r="384"/>
		<g>
			<path fill="#FFFFFF" d="M510.992,594.656h20.624c5.536,0,10-4.48,10-10.016v-72.512h72.368c5.504,0,10-4.512,10-10.048v-20.64
				c0-5.536-4.496-10.048-10-10.048h-72.368V398.88c0-5.504-4.464-10.016-10-10.016h-20.624c-5.536,0-10.032,4.512-10.032,10.016
				v72.512h-72.368c-5.504,0-10,4.512-10,10.048v20.64c0,5.536,4.496,10.048,10,10.048h72.368v72.512
				C500.976,590.176,505.472,594.656,510.992,594.656z"/>
			<path fill="#FFFFFF" d="M225.904,720.96c18.304,4.672,38,7.04,58.432,7.04c18.368,0,35.872-2.416,52.064-7.104
				c50.464-14.656,83.088-51.872,83.088-94.864c0-41.232-13.216-65.904-48.72-91.072c-15.216-10.8-29.072-26.608-29.312-31.504
				c0-8.864,0.784-13.088,20.624-28.592c25.648-20.096,39.776-46.56,39.776-74.512c0-25.328-7.712-47.84-20.912-63.648h10.224
				c2.128,0,4.192-0.656,5.872-1.872l28.464-20.656c3.536-2.544,5.024-7.072,3.664-11.216c-1.328-4.144-5.168-6.96-9.52-6.96
				H292.336c-13.936,0-28.096,2.448-41.968,7.232c-46.4,16.032-78.848,55.632-78.848,96.336
				c0,57.584,44.528,101.248,104.096,102.624c-1.152,4.576-1.744,9.072-1.744,13.488c0,8.864,2.256,17.28,6.88,25.392
				c-0.56,0.032-1.056,0.032-1.664,0.032c-56.752,0-108,27.904-127.44,69.44c-5.088,10.784-7.648,21.712-7.648,32.48
				c0,10.496,2.688,20.576,7.936,30.064C164.192,694.992,190.432,712,225.904,720.96z M237.248,398
				c-2.752-21.104,1.648-40.048,12.16-52.032c6.784-7.76,15.648-11.84,25.6-11.84l1.152,0.032c28.128,0.816,55.024,32.224,60,70
				c2.784,21.168-1.904,41.04-12.528,53.2c-6.784,7.76-15.536,11.84-25.904,11.84c0,0,0,0-0.032,0h-0.432
				C269.696,468.384,242.192,435.728,237.248,398z M291.344,573.024l1.152,0.032c9.44,0.096,18.624,1.504,27.312,4.16
				c2.976,2.032,5.84,4,8.624,5.888c20.064,13.712,33.312,22.768,37.024,37.296c0.848,3.632,1.28,7.296,1.28,10.832
				c0,37.344-27.808,56.288-82.656,56.288c-41.6,0-74.128-25.552-74.128-58.176C209.968,599.344,248,573.024,291.344,573.024z"/>
		</g>
	</g>
</g>
<g id="Layer_1">
</g>
</svg>
