<?xml version="1.0" encoding="utf-8"?>
<!-- Generator: Adobe Illustrator 16.0.0, SVG Export Plug-In . SVG Version: 6.00 Build 0)  -->
<!DOCTYPE svg PUBLIC "-//W3C//DTD SVG 1.1//EN" "http://www.w3.org/Graphics/SVG/1.1/DTD/svg11.dtd">
<svg version="1.1" id="Calque_1" xmlns="http://www.w3.org/2000/svg" xmlns:xlink="http://www.w3.org/1999/xlink" x="0px" y="0px"
	 width="20px" height="20px" viewBox="0 0 20 20" enable-background="new 0 0 20 20" xml:space="preserve">
<path fill="#FFFFFF" d="M10,20C4.486,20,0,15.514,0,10S4.486,0,10,0s10,4.486,10,10S15.514,20,10,20z M10,1.86
	c-4.488,0-8.14,3.651-8.14,8.14s3.651,8.14,8.14,8.14s8.14-3.651,8.14-8.14S14.488,1.86,10,1.86z"/>
<path fill="#FFFFFF" d="M11.677,10.477c-0.187,0-0.371-0.083-0.493-0.243c-0.208-0.272-0.156-0.662,0.116-0.87
	c0.564-0.431,0.889-1.085,0.889-1.794c0-1.245-1.013-2.257-2.258-2.257c-1.244,0-2.256,1.012-2.256,2.257
	c0,0.342-0.277,0.62-0.62,0.62c-0.342,0-0.62-0.277-0.62-0.62c0-1.928,1.569-3.497,3.497-3.497c1.93,0,3.498,1.569,3.498,3.497
	c0,1.099-0.502,2.112-1.376,2.78C11.94,10.435,11.808,10.477,11.677,10.477z"/>
<path fill="#FFFFFF" d="M9.877,13.559c-0.343,0-0.62-0.278-0.62-0.621c0-2.21,1.994-3.544,2.079-3.6
	c0.287-0.188,0.671-0.108,0.858,0.178s0.108,0.669-0.176,0.857c-0.022,0.015-1.521,1.034-1.521,2.564
	C10.497,13.28,10.22,13.559,9.877,13.559z"/>
<path fill="#FFFFFF" d="M9.922,15.659c-0.343,0-0.62-0.277-0.62-0.62v-0.62c0-0.343,0.277-0.621,0.62-0.621s0.621,0.278,0.621,0.621
	v0.62C10.543,15.382,10.265,15.659,9.922,15.659z"/>
</svg>
