<?xml version="1.0" encoding="utf-8"?>
<!-- Generator: Adobe Illustrator 17.0.0, SVG Export Plug-In . SVG Version: 6.00 Build 0)  -->
<!DOCTYPE svg PUBLIC "-//W3C//DTD SVG 1.1//EN" "http://www.w3.org/Graphics/SVG/1.1/DTD/svg11.dtd" [
	<!ENTITY ns_extend "http://ns.adobe.com/Extensibility/1.0/">
	<!ENTITY ns_ai "http://ns.adobe.com/AdobeIllustrator/10.0/">
	<!ENTITY ns_graphs "http://ns.adobe.com/Graphs/1.0/">
	<!ENTITY ns_vars "http://ns.adobe.com/Variables/1.0/">
	<!ENTITY ns_imrep "http://ns.adobe.com/ImageReplacement/1.0/">
	<!ENTITY ns_sfw "http://ns.adobe.com/SaveForWeb/1.0/">
	<!ENTITY ns_custom "http://ns.adobe.com/GenericCustomNamespace/1.0/">
	<!ENTITY ns_adobe_xpath "http://ns.adobe.com/XPath/1.0/">
]>
<svg version="1.1" id="Calque_1" xmlns:x="&ns_extend;" xmlns:i="&ns_ai;" xmlns:graph="&ns_graphs;"
	 xmlns="http://www.w3.org/2000/svg" xmlns:xlink="http://www.w3.org/1999/xlink" x="0px" y="0px" width="768px" height="1024px"
	 viewBox="0 0 768 1024" enable-background="new 0 0 768 1024" xml:space="preserve">
<metadata>
	<sfw  xmlns="&ns_sfw;">
		<slices></slices>
		<sliceSourceBounds  y="-363.5" x="-364.5" height="768" width="768" bottomLeftOrigin="true"></sliceSourceBounds>
	</sfw>
</metadata>
<g id="Layer_543">
	<g>
		<circle fill="#517FA4" cx="384" cy="512" r="384"/>
		<g>
			<path fill="#FFFFFF" d="M531.216,272H236.752C185.6,272,144,313.6,144,364.752v98v196.496C144,710.4,185.6,752,236.752,752
				h294.464C582.368,752,624,710.4,624,659.248V462.752v-98C624,313.6,582.368,272,531.216,272z M557.84,327.344l10.592-0.064
				v10.592v70.752l-81.056,0.272l-0.288-81.344L557.84,327.344z M315.504,462.752c15.376-21.28,40.304-35.216,68.496-35.216
				s53.12,13.936,68.496,35.216c10,13.872,16,30.88,16,49.248c0,46.56-37.936,84.464-84.496,84.464
				c-46.592,0-84.496-37.904-84.496-84.464C299.504,493.632,305.504,476.624,315.504,462.752z M577.248,659.248
				c0,25.376-20.656,46-46.032,46H236.752c-25.376,0-46-20.624-46-46V462.752H262.4c-6.192,15.216-9.648,31.84-9.648,49.248
				c0,72.368,58.88,131.248,131.248,131.248S515.248,584.368,515.248,512c0-17.408-3.504-34.032-9.68-49.248h71.68V659.248z"/>
		</g>
		<circle fill="#517FA4" cx="384" cy="512" r="384"/>
		<g>
			<path fill="#FFFFFF" d="M531.216,272H236.752C185.6,272,144,313.6,144,364.752v98v196.496C144,710.4,185.6,752,236.752,752
				h294.464C582.368,752,624,710.4,624,659.248V462.752v-98C624,313.6,582.368,272,531.216,272z M557.84,327.344l10.592-0.064
				v10.592v70.752l-81.056,0.272l-0.288-81.344L557.84,327.344z M315.504,462.752c15.376-21.28,40.304-35.216,68.496-35.216
				s53.12,13.936,68.496,35.216c10,13.872,16,30.88,16,49.248c0,46.56-37.936,84.464-84.496,84.464
				c-46.592,0-84.496-37.904-84.496-84.464C299.504,493.632,305.504,476.624,315.504,462.752z M577.248,659.248
				c0,25.376-20.656,46-46.032,46H236.752c-25.376,0-46-20.624-46-46V462.752H262.4c-6.192,15.216-9.648,31.84-9.648,49.248
				c0,72.368,58.88,131.248,131.248,131.248S515.248,584.368,515.248,512c0-17.408-3.504-34.032-9.68-49.248h71.68V659.248z"/>
		</g>
		<circle fill="#F32063" cx="384" cy="512" r="384"/>
		<g>
			<path fill="#FFFFFF" d="M531.216,272H236.752C185.6,272,144,313.6,144,364.752v98v196.496C144,710.4,185.6,752,236.752,752
				h294.464C582.368,752,624,710.4,624,659.248V462.752v-98C624,313.6,582.368,272,531.216,272z M557.84,327.344l10.592-0.064
				v10.592v70.752l-81.056,0.272l-0.288-81.344L557.84,327.344z M315.504,462.752c15.376-21.28,40.304-35.216,68.496-35.216
				s53.12,13.936,68.496,35.216c10,13.872,16,30.88,16,49.248c0,46.56-37.936,84.464-84.496,84.464
				c-46.592,0-84.496-37.904-84.496-84.464C299.504,493.632,305.504,476.624,315.504,462.752z M577.248,659.248
				c0,25.376-20.656,46-46.032,46H236.752c-25.376,0-46-20.624-46-46V462.752H262.4c-6.192,15.216-9.648,31.84-9.648,49.248
				c0,72.368,58.88,131.248,131.248,131.248S515.248,584.368,515.248,512c0-17.408-3.504-34.032-9.68-49.248h71.68V659.248z"/>
		</g>
	</g>
</g>
<g id="Layer_1">
</g>
</svg>
