<?xml version="1.0" encoding="utf-8"?>
<!-- Generator: Adobe Illustrator 16.0.0, SVG Export Plug-In . SVG Version: 6.00 Build 0)  -->
<!DOCTYPE svg PUBLIC "-//W3C//DTD SVG 1.1//EN" "http://www.w3.org/Graphics/SVG/1.1/DTD/svg11.dtd">
<svg version="1.1" id="Calque_1" xmlns="http://www.w3.org/2000/svg" xmlns:xlink="http://www.w3.org/1999/xlink" x="0px" y="0px"
	 width="125px" height="71.5px" viewBox="0 0 125 71.5" enable-background="new 0 0 125 71.5" xml:space="preserve">
<g>
	<defs>
		<rect id="SVGID_1_" width="125" height="71.5"/>
	</defs>
	<clipPath id="SVGID_2_">
		<use xlink:href="#SVGID_1_"  overflow="visible"/>
	</clipPath>
	
		<path clip-path="url(#SVGID_2_)" fill="none" stroke="#F32063" stroke-width="6" stroke-linecap="round" stroke-linejoin="round" stroke-miterlimit="10" d="
		M83,36V3H29v55h11.032c0.841-3.905,4.311-6.833,8.468-6.833s7.627,2.928,8.468,6.833h37.064c0.841-3.905,4.311-6.833,8.468-6.833
		s7.627,2.928,8.468,6.833H122V36H83z"/>
	
		<circle clip-path="url(#SVGID_2_)" fill="none" stroke="#F32063" stroke-width="6" stroke-linecap="round" stroke-linejoin="round" stroke-miterlimit="10" cx="48.5" cy="59.833" r="8.667"/>
	
		<circle clip-path="url(#SVGID_2_)" fill="none" stroke="#F32063" stroke-width="6" stroke-linecap="round" stroke-linejoin="round" stroke-miterlimit="10" cx="102.5" cy="59.833" r="8.667"/>
	
		<polyline clip-path="url(#SVGID_2_)" fill="none" stroke="#F32063" stroke-width="6" stroke-linecap="round" stroke-linejoin="round" stroke-miterlimit="10" points="
		83,9 107,9 118,36 	"/>
	
		<line clip-path="url(#SVGID_2_)" fill="none" stroke="#F32063" stroke-width="4" stroke-linecap="round" stroke-linejoin="round" stroke-miterlimit="10" x1="40" y1="14" x2="15" y2="14"/>
	
		<line clip-path="url(#SVGID_2_)" fill="none" stroke="#F32063" stroke-width="4" stroke-linecap="round" stroke-linejoin="round" stroke-miterlimit="10" x1="6" y1="14" x2="2" y2="14"/>
	
		<line clip-path="url(#SVGID_2_)" fill="none" stroke="#F32063" stroke-width="4" stroke-linecap="round" stroke-linejoin="round" stroke-miterlimit="10" x1="40" y1="25" x2="22" y2="25"/>
	
		<line clip-path="url(#SVGID_2_)" fill="none" stroke="#F32063" stroke-width="4" stroke-linecap="round" stroke-linejoin="round" stroke-miterlimit="10" x1="15" y1="25" x2="12" y2="25"/>
</g>
</svg>
