<?xml version="1.0" encoding="utf-8"?>
<!-- Generator: Adobe Illustrator 21.0.2, SVG Export Plug-In . SVG Version: 6.00 Build 0)  -->
<svg version="1.1" id="Calque_1" xmlns="http://www.w3.org/2000/svg" xmlns:xlink="http://www.w3.org/1999/xlink" x="0px" y="0px"
	 viewBox="0 0 278 67" style="enable-background:new 0 0 278 67;" xml:space="preserve">
<style type="text/css">
	.st0{fill:#E52C65;}
	.st1{enable-background:new    ;}
	.st2{fill:#545454;}
	.st3{fill:#B4B4B4;}
</style>
<g>
	<path class="st0" d="M249.5,14.8c0,0-5.6-10.5-20.2-10.5c-14.6,0-21.9,11.6-21.9,21.4c0,7.2,1.9,17.5,14.3,27
		c0-0.1,0.1-0.2,0.1-0.3l9.8-16l-1.8-1.1c-1.1-0.7-1.2-2.3-0.2-4l1.5-2.5l3.2-5.2c0.3-0.5,1-0.6,1.4-0.3c0.5,0.3,0.6,1,0.3,1.4
		l-2.7,4.3l1.9,1.2l2.7-4.3c0.3-0.5,1-0.6,1.4-0.3c0,0,0,0,0,0c0.5,0.3,0.6,1,0.3,1.4l-2.7,4.3l2,1.2l2.7-4.3c0.3-0.5,1-0.7,1.4-0.3
		c0.5,0.3,0.6,1,0.3,1.4l-3.2,5.2L239,37l-0.2,0.3c0,0.1-0.1,0.1-0.2,0.2c-1,1.2-2.3,1.7-3.3,1.1l-1.9-1.2l-9.8,16
		c-0.1,0.1-0.2,0.3-0.4,0.3c1.9,1.3,3.9,2.6,6.2,3.9l17-27.6c0.2-0.4,0.6-0.6,1.1-0.5c0.4,0.1,0.8,0.4,0.9,0.8
		c0.1,0.4,2.1,8.8-3.8,18.3c-0.2,0.3-0.5,0.5-0.9,0.5l-6.7,0.3l-5.7,9.2c2.4,1.3,5.1,2.5,8,3.7c0,0,32.7-13.4,32.7-34.4
		C272.1,7,250,13.8,249.5,14.8z"/>
	<path class="st0" d="M237.2,35.9l1-1.6l-2.9-1.8c0,0,0,0,0,0l-2.8-1.7l-0.8,1.4c0,0,0,0,0,0l-0.1,0.2c-0.3,0.5-0.4,1-0.4,1.2
		l5.2,3.2C236.5,36.7,236.9,36.4,237.2,35.9z"/>
	<path class="st0" d="M246.7,33.8l-8.3,13.5l4.7-0.2C246.2,41.7,246.7,36.8,246.7,33.8z"/>
</g>
<g class="st1">
	<path class="st2" d="M11.9,20.4v15.9h9c0.7,0,1.3,0.2,1.6,0.5s0.6,0.8,0.6,1.3c0,0.5-0.2,1-0.6,1.3s-0.9,0.5-1.6,0.5H10.2
		c-1,0-1.7-0.2-2.1-0.6c-0.4-0.4-0.6-1.1-0.6-2.1V20.4c0-0.9,0.2-1.6,0.6-2C8.5,18,9,17.8,9.7,17.8c0.7,0,1.2,0.2,1.6,0.7
		C11.7,18.9,11.9,19.5,11.9,20.4z"/>
	<path class="st2" d="M25.4,22.3h-0.2c-0.6,0-1.1-0.2-1.5-0.7c-0.4-0.5-0.7-1-0.7-1.6c0-0.6,0.2-1.2,0.7-1.6c0.5-0.4,1-0.6,1.7-0.6
		c0.5,0,0.9,0.1,1.3,0.4c0.4,0.3,0.7,0.6,0.9,1.1c0.2,0.5,0.3,1.1,0.3,1.8c0,1-0.2,1.9-0.6,2.8s-0.9,1.5-1.5,2
		c-0.6,0.5-1.1,0.8-1.6,0.8c-0.3,0-0.6-0.1-0.8-0.3C23.1,26.2,23,26,23,25.7c0-0.4,0.2-0.8,0.6-1c0.5-0.3,0.9-0.6,1.2-1
		C25.2,23.3,25.4,22.8,25.4,22.3z"/>
	<path class="st2" d="M42.4,38c-1,0.8-1.9,1.3-2.8,1.7c-0.9,0.4-1.9,0.6-3.1,0.6c-1,0-2-0.2-2.7-0.6c-0.8-0.4-1.4-1-1.8-1.7
		s-0.6-1.5-0.6-2.3c0-1.1,0.4-2.1,1.1-2.8c0.7-0.8,1.7-1.3,2.9-1.6c0.3-0.1,0.9-0.2,1.9-0.4c1-0.2,1.9-0.4,2.6-0.6
		c0.7-0.2,1.5-0.4,2.4-0.6c-0.1-1.1-0.3-1.9-0.6-2.4c-0.4-0.5-1.2-0.8-2.4-0.8c-1,0-1.8,0.1-2.3,0.4c-0.5,0.3-1,0.7-1.3,1.3
		c-0.4,0.6-0.6,1-0.8,1.1c-0.2,0.2-0.5,0.3-1,0.3c-0.5,0-0.9-0.1-1.2-0.4C32.2,29,32,28.6,32,28.2c0-0.7,0.3-1.4,0.8-2.1
		c0.5-0.7,1.3-1.2,2.4-1.7s2.4-0.7,4-0.7c1.8,0,3.2,0.2,4.2,0.6c1,0.4,1.7,1.1,2.2,2c0.4,0.9,0.6,2.1,0.6,3.6c0,1,0,1.8,0,2.4
		s0,1.4,0,2.2c0,0.8,0.1,1.6,0.4,2.4c0.3,0.8,0.4,1.4,0.4,1.6c0,0.4-0.2,0.8-0.6,1.1c-0.4,0.3-0.8,0.5-1.3,0.5
		c-0.4,0-0.8-0.2-1.2-0.6C43.3,39.3,42.9,38.7,42.4,38z M42.2,32.1c-0.6,0.2-1.5,0.4-2.6,0.7c-1.1,0.2-1.9,0.4-2.4,0.5
		c-0.4,0.1-0.9,0.3-1.2,0.7c-0.4,0.3-0.6,0.8-0.6,1.4c0,0.6,0.2,1.1,0.7,1.6c0.5,0.4,1.1,0.6,1.8,0.6c0.8,0,1.5-0.2,2.2-0.5
		c0.7-0.4,1.2-0.8,1.5-1.4c0.4-0.6,0.6-1.6,0.6-3L42.2,32.1L42.2,32.1z"/>
	<path class="st2" d="M63.8,32.3v5.4c0,0.9-0.2,1.5-0.6,1.9c-0.4,0.4-0.9,0.6-1.5,0.6c-0.6,0-1.1-0.2-1.5-0.6
		c-0.4-0.4-0.6-1.1-0.6-1.9v-6.5c0-1,0-1.8-0.1-2.4c-0.1-0.6-0.3-1-0.6-1.4c-0.3-0.4-0.8-0.5-1.5-0.5c-1.3,0-2.2,0.5-2.6,1.4
		c-0.4,0.9-0.6,2.2-0.6,3.9v5.5c0,0.8-0.2,1.5-0.6,1.9s-0.9,0.6-1.5,0.6c-0.6,0-1.1-0.2-1.5-0.6c-0.4-0.4-0.6-1.1-0.6-1.9V26.1
		c0-0.8,0.2-1.3,0.5-1.7s0.8-0.6,1.4-0.6c0.6,0,1,0.2,1.4,0.6c0.4,0.4,0.6,0.9,0.6,1.5v0.4c0.7-0.8,1.5-1.5,2.3-1.9
		c0.8-0.4,1.7-0.6,2.7-0.6c1,0,1.9,0.2,2.6,0.6c0.7,0.4,1.3,1,1.8,1.8c0.7-0.8,1.4-1.4,2.2-1.9s1.6-0.6,2.6-0.6
		c1.1,0,2.1,0.2,2.9,0.7c0.8,0.4,1.4,1.1,1.8,1.9c0.3,0.7,0.5,1.9,0.5,3.5v7.9c0,0.9-0.2,1.5-0.6,1.9c-0.4,0.4-0.9,0.6-1.5,0.6
		c-0.6,0-1.1-0.2-1.5-0.6c-0.4-0.4-0.6-1.1-0.6-1.9v-6.8c0-0.9,0-1.6-0.1-2.1c-0.1-0.5-0.3-1-0.6-1.3C68,27.1,67.5,27,66.9,27
		c-0.5,0-1,0.2-1.5,0.5c-0.5,0.3-0.9,0.7-1.1,1.3C63.9,29.4,63.8,30.6,63.8,32.3z"/>
	<path class="st2" d="M92.4,32c0,1.2-0.2,2.3-0.6,3.3s-0.9,1.9-1.6,2.6c-0.7,0.7-1.6,1.3-2.6,1.7s-2.1,0.6-3.3,0.6
		c-1.2,0-2.3-0.2-3.3-0.6c-1-0.4-1.8-1-2.6-1.7s-1.3-1.6-1.6-2.6s-0.6-2.1-0.6-3.3c0-1.2,0.2-2.4,0.6-3.4c0.4-1,0.9-1.9,1.6-2.6
		s1.6-1.3,2.6-1.7s2.1-0.6,3.3-0.6c1.2,0,2.3,0.2,3.3,0.6c1,0.4,1.9,1,2.6,1.7c0.7,0.7,1.3,1.6,1.6,2.6C92.2,29.7,92.4,30.8,92.4,32
		z M88.3,32c0-1.7-0.4-2.9-1.1-3.9c-0.7-0.9-1.7-1.4-2.9-1.4c-0.8,0-1.5,0.2-2.1,0.6c-0.6,0.4-1.1,1-1.4,1.8S80.3,31,80.3,32
		c0,1.1,0.2,2,0.5,2.8c0.3,0.8,0.8,1.4,1.4,1.8c0.6,0.4,1.3,0.6,2.1,0.6c1.2,0,2.2-0.5,2.9-1.4C88,35,88.3,33.7,88.3,32z"/>
	<path class="st2" d="M106.1,38v-0.5c-0.5,0.6-1,1.1-1.5,1.5c-0.5,0.4-1.1,0.7-1.8,0.9c-0.6,0.2-1.4,0.3-2.2,0.3
		c-1,0-1.9-0.2-2.6-0.6c-0.8-0.4-1.4-1-1.8-1.7c-0.5-0.9-0.8-2.1-0.8-3.7v-8c0-0.8,0.2-1.4,0.6-1.8c0.4-0.4,0.9-0.6,1.5-0.6
		c0.6,0,1.1,0.2,1.5,0.6c0.4,0.4,0.6,1,0.6,1.8v6.5c0,0.9,0.1,1.7,0.2,2.4c0.2,0.6,0.4,1.1,0.9,1.5c0.4,0.4,1,0.5,1.7,0.5
		c0.7,0,1.3-0.2,1.9-0.6c0.6-0.4,1-0.9,1.3-1.6c0.2-0.6,0.3-1.8,0.3-3.8v-4.9c0-0.8,0.2-1.4,0.6-1.8c0.4-0.4,0.9-0.6,1.5-0.6
		c0.6,0,1.1,0.2,1.5,0.6c0.4,0.4,0.5,1,0.5,1.8V38c0,0.8-0.2,1.4-0.5,1.7c-0.4,0.4-0.8,0.6-1.4,0.6s-1-0.2-1.4-0.6
		C106.3,39.3,106.1,38.7,106.1,38z"/>
	<path class="st2" d="M118,34.4v3.4c0,0.8-0.2,1.4-0.6,1.9c-0.4,0.4-0.9,0.6-1.5,0.6c-0.6,0-1.1-0.2-1.4-0.6c-0.4-0.4-0.6-1-0.6-1.8
		V26.5c0-1.8,0.7-2.7,2-2.7c0.7,0,1.2,0.2,1.5,0.6c0.3,0.4,0.5,1.1,0.5,1.9c0.5-0.8,1-1.5,1.5-1.9c0.5-0.4,1.2-0.6,2-0.6
		c0.9,0,1.7,0.2,2.5,0.6c0.8,0.4,1.2,1,1.2,1.7c0,0.5-0.2,0.9-0.5,1.2s-0.7,0.5-1.1,0.5c-0.1,0-0.5-0.1-1.1-0.3
		c-0.6-0.2-1.1-0.3-1.5-0.3c-0.6,0-1.1,0.2-1.5,0.5c-0.4,0.3-0.7,0.8-0.9,1.4s-0.4,1.3-0.4,2.2C118.1,32.2,118,33.2,118,34.4z"/>
	<path class="st2" d="M140.6,21.5h-8.7v5.6h7.3c0.7,0,1.2,0.2,1.5,0.5c0.3,0.3,0.5,0.7,0.5,1.2s-0.2,0.9-0.5,1.2
		c-0.3,0.3-0.8,0.4-1.5,0.4h-7.3v7.2c0,0.9-0.2,1.6-0.6,2c-0.4,0.4-0.9,0.7-1.6,0.7c-0.7,0-1.2-0.2-1.6-0.7c-0.4-0.4-0.6-1.1-0.6-2
		V20.8c0-0.6,0.1-1.2,0.3-1.6s0.5-0.7,0.9-0.9s0.9-0.3,1.5-0.3h10.4c0.7,0,1.2,0.2,1.6,0.5s0.5,0.7,0.5,1.2c0,0.5-0.2,0.9-0.5,1.2
		C141.9,21.4,141.3,21.5,140.6,21.5z"/>
	<path class="st2" d="M159.8,32c0,1.2-0.2,2.3-0.6,3.3c-0.4,1-0.9,1.9-1.6,2.6c-0.7,0.7-1.6,1.3-2.6,1.7s-2.1,0.6-3.3,0.6
		c-1.2,0-2.3-0.2-3.3-0.6s-1.8-1-2.5-1.7s-1.3-1.6-1.6-2.6c-0.4-1-0.6-2.1-0.6-3.3c0-1.2,0.2-2.4,0.6-3.4c0.4-1,0.9-1.9,1.6-2.6
		c0.7-0.7,1.6-1.3,2.6-1.7s2.1-0.6,3.3-0.6c1.2,0,2.3,0.2,3.3,0.6c1,0.4,1.9,1,2.6,1.7c0.7,0.7,1.3,1.6,1.6,2.6
		C159.6,29.7,159.8,30.8,159.8,32z M155.7,32c0-1.7-0.4-2.9-1.1-3.9c-0.7-0.9-1.7-1.4-2.9-1.4c-0.8,0-1.5,0.2-2.1,0.6
		c-0.6,0.4-1.1,1-1.4,1.8s-0.5,1.7-0.5,2.8c0,1.1,0.2,2,0.5,2.8c0.3,0.8,0.8,1.4,1.4,1.8c0.6,0.4,1.3,0.6,2.1,0.6
		c1.2,0,2.2-0.5,2.9-1.4C155.3,35,155.7,33.7,155.7,32z"/>
	<path class="st2" d="M178.2,32c0,1.2-0.2,2.3-0.6,3.3s-0.9,1.9-1.6,2.6c-0.7,0.7-1.6,1.3-2.6,1.7s-2.1,0.6-3.3,0.6
		c-1.2,0-2.3-0.2-3.3-0.6c-1-0.4-1.8-1-2.5-1.7s-1.3-1.6-1.6-2.6S162,33.3,162,32c0-1.2,0.2-2.4,0.6-3.4c0.4-1,0.9-1.9,1.6-2.6
		s1.6-1.3,2.6-1.7s2.1-0.6,3.3-0.6c1.2,0,2.3,0.2,3.3,0.6c1,0.4,1.9,1,2.6,1.7c0.7,0.7,1.3,1.6,1.6,2.6
		C178,29.7,178.2,30.8,178.2,32z M174.1,32c0-1.7-0.4-2.9-1.1-3.9c-0.7-0.9-1.7-1.4-2.9-1.4c-0.8,0-1.5,0.2-2.1,0.6
		c-0.6,0.4-1.1,1-1.4,1.8s-0.5,1.7-0.5,2.8c0,1.1,0.2,2,0.5,2.8c0.3,0.8,0.8,1.4,1.4,1.8c0.6,0.4,1.3,0.6,2.1,0.6
		c1.2,0,2.2-0.5,2.9-1.4C173.7,35,174.1,33.7,174.1,32z"/>
	<path class="st2" d="M192.5,38v-0.4c-0.5,0.6-1.1,1.1-1.6,1.5c-0.5,0.4-1.1,0.7-1.7,0.9c-0.6,0.2-1.3,0.3-2,0.3
		c-1,0-1.9-0.2-2.7-0.6c-0.8-0.4-1.5-1-2.1-1.8c-0.6-0.8-1.1-1.7-1.4-2.7c-0.3-1-0.5-2.1-0.5-3.3c0-2.5,0.6-4.5,1.9-5.9
		c1.2-1.4,2.9-2.1,4.9-2.1c1.2,0,2.2,0.2,3,0.6c0.8,0.4,1.6,1,2.3,1.9v-6c0-0.8,0.2-1.5,0.5-1.9s0.8-0.6,1.4-0.6s1.1,0.2,1.4,0.6
		c0.3,0.4,0.5,1,0.5,1.7V38c0,0.8-0.2,1.4-0.5,1.7c-0.4,0.4-0.8,0.6-1.4,0.6c-0.6,0-1-0.2-1.4-0.6C192.7,39.3,192.5,38.7,192.5,38z
		 M184.5,32c0,1.1,0.2,2,0.5,2.8c0.3,0.8,0.8,1.4,1.4,1.7c0.6,0.4,1.2,0.6,1.9,0.6c0.7,0,1.4-0.2,2-0.6c0.6-0.4,1.1-0.9,1.4-1.7
		c0.4-0.8,0.5-1.7,0.5-2.9c0-1.1-0.2-2-0.5-2.8c-0.4-0.8-0.8-1.4-1.4-1.8c-0.6-0.4-1.3-0.6-2-0.6c-0.7,0-1.4,0.2-2,0.6
		c-0.6,0.4-1,1-1.4,1.8S184.5,31,184.5,32z"/>
</g>
<g class="st1">
	<path class="st0" d="M202.3,40.3c-0.6,0-1.1-0.2-1.6-0.6c-0.4-0.4-0.7-1-0.7-1.7c0-0.6,0.2-1.1,0.6-1.6c0.4-0.4,1-0.7,1.6-0.7
		c0.6,0,1.2,0.2,1.6,0.6c0.4,0.4,0.7,1,0.7,1.6c0,0.7-0.2,1.3-0.7,1.7C203.4,40.1,202.9,40.3,202.3,40.3z"/>
</g>
<g class="st1">
	<path class="st3" d="M21.1,54.9h4.2v0.9H20v-8.5h1.2V54.9L21.1,54.9z"/>
	<path class="st3" d="M30.3,55.8c0-0.2-0.1-0.4-0.1-0.5c0-0.1,0-0.3,0-0.4c-0.2,0.3-0.5,0.6-0.8,0.8c-0.3,0.2-0.7,0.3-1.1,0.3
		c-0.7,0-1.2-0.2-1.5-0.5c-0.3-0.3-0.5-0.8-0.5-1.4c0-0.6,0.2-1.1,0.7-1.4c0.5-0.3,1.2-0.5,2-0.5h1.3v-0.6c0-0.4-0.1-0.7-0.3-0.9
		c-0.2-0.2-0.5-0.3-1-0.3c-0.4,0-0.7,0.1-0.9,0.3c-0.2,0.2-0.3,0.4-0.3,0.7l-1.1,0l0,0c0-0.5,0.2-0.9,0.6-1.3
		c0.5-0.4,1.1-0.6,1.8-0.6c0.7,0,1.3,0.2,1.7,0.5c0.4,0.4,0.7,0.9,0.7,1.6v3.1c0,0.2,0,0.4,0,0.7c0,0.2,0.1,0.4,0.1,0.6L30.3,55.8
		L30.3,55.8L30.3,55.8z M28.4,55c0.4,0,0.8-0.1,1.1-0.3s0.6-0.5,0.7-0.7v-1h-1.3c-0.5,0-0.8,0.1-1.1,0.4c-0.3,0.2-0.4,0.5-0.4,0.8
		c0,0.3,0.1,0.5,0.3,0.7C27.8,54.9,28,55,28.4,55z"/>
	<path class="st3" d="M35.8,52.8c0-1,0.2-1.8,0.7-2.5s1-0.9,1.8-0.9c0.4,0,0.8,0.1,1.1,0.2c0.3,0.2,0.6,0.4,0.8,0.7l0.1-0.8h0.9v6.4
		c0,0.8-0.2,1.4-0.7,1.9s-1.2,0.7-2,0.7c-0.3,0-0.6,0-1-0.1s-0.7-0.2-0.9-0.3l0.2-0.9c0.2,0.1,0.5,0.2,0.8,0.3s0.6,0.1,0.9,0.1
		c0.6,0,1-0.1,1.2-0.4c0.3-0.3,0.4-0.6,0.4-1.2v-0.7c-0.2,0.3-0.5,0.5-0.7,0.6s-0.6,0.2-1,0.2c-0.8,0-1.4-0.3-1.8-0.8
		s-0.7-1.3-0.7-2.2L35.8,52.8L35.8,52.8L35.8,52.8z M36.9,52.9c0,0.6,0.1,1.1,0.4,1.5c0.3,0.4,0.7,0.6,1.2,0.6
		c0.3,0,0.6-0.1,0.9-0.2c0.2-0.2,0.4-0.4,0.6-0.7v-2.9c-0.1-0.3-0.3-0.5-0.6-0.6c-0.2-0.2-0.5-0.2-0.9-0.2c-0.6,0-1,0.2-1.2,0.7
		c-0.3,0.5-0.4,1.1-0.4,1.8L36.9,52.9L36.9,52.9z"/>
	<path class="st3" d="M46.7,55.8c0-0.2-0.1-0.4-0.1-0.5c0-0.1,0-0.3,0-0.4c-0.2,0.3-0.5,0.6-0.8,0.8s-0.7,0.3-1.1,0.3
		c-0.7,0-1.2-0.2-1.5-0.5s-0.5-0.8-0.5-1.4c0-0.6,0.2-1.1,0.7-1.4c0.5-0.3,1.2-0.5,2-0.5h1.3v-0.6c0-0.4-0.1-0.7-0.3-0.9
		c-0.2-0.2-0.5-0.3-1-0.3c-0.4,0-0.7,0.1-0.9,0.3C44.1,50.7,44,51,44,51.2l-1.1,0l0,0c0-0.5,0.2-0.9,0.6-1.3
		c0.5-0.4,1.1-0.6,1.8-0.6c0.7,0,1.3,0.2,1.7,0.5c0.4,0.4,0.7,0.9,0.7,1.6v3.1c0,0.2,0,0.4,0,0.7c0,0.2,0.1,0.4,0.1,0.6L46.7,55.8
		L46.7,55.8L46.7,55.8z M44.8,55c0.4,0,0.8-0.1,1.1-0.3s0.6-0.5,0.7-0.7v-1h-1.3c-0.5,0-0.8,0.1-1.1,0.4c-0.3,0.2-0.4,0.5-0.4,0.8
		c0,0.3,0.1,0.5,0.3,0.7C44.2,54.9,44.4,55,44.8,55z"/>
	<path class="st3" d="M53.1,54.1c0-0.3-0.1-0.5-0.3-0.6c-0.2-0.2-0.6-0.3-1.1-0.4c-0.7-0.2-1.3-0.4-1.7-0.7s-0.6-0.7-0.6-1.2
		c0-0.5,0.2-1,0.7-1.3c0.4-0.4,1-0.6,1.7-0.6c0.7,0,1.3,0.2,1.7,0.6c0.4,0.4,0.7,0.8,0.6,1.4l0,0H53c0-0.3-0.1-0.5-0.4-0.7
		c-0.2-0.2-0.5-0.3-0.9-0.3c-0.4,0-0.7,0.1-0.9,0.3c-0.2,0.2-0.3,0.4-0.3,0.7c0,0.2,0.1,0.4,0.3,0.6c0.2,0.1,0.5,0.3,1.1,0.4
		c0.8,0.2,1.4,0.4,1.8,0.7c0.4,0.3,0.6,0.7,0.6,1.2c0,0.6-0.2,1-0.7,1.4c-0.5,0.4-1.1,0.5-1.8,0.5c-0.8,0-1.4-0.2-1.9-0.6
		c-0.5-0.4-0.7-0.9-0.7-1.4l0,0h1.1c0,0.4,0.2,0.7,0.5,0.9s0.6,0.3,1,0.3c0.4,0,0.7-0.1,1-0.3C53,54.6,53.1,54.4,53.1,54.1z"/>
	<path class="st3" d="M57.3,47.9v1.5h1.2v0.9h-1.2v3.8c0,0.3,0.1,0.5,0.2,0.6S57.8,55,58,55c0.1,0,0.1,0,0.2,0s0.1,0,0.2-0.1
		l0.2,0.8c-0.1,0.1-0.2,0.1-0.4,0.2c-0.2,0-0.3,0.1-0.5,0.1c-0.5,0-0.8-0.1-1.1-0.4c-0.3-0.3-0.4-0.7-0.4-1.3v-3.8h-1v-0.9h1v-1.5
		H57.3z"/>
</g>
<g class="st1">
	<path class="st3" d="M62.7,50.5l-0.6,0c-0.3,0-0.6,0.1-0.8,0.2S61,51,60.9,51.3v4.5h-1.2v-6.3h1l0.1,0.9c0.2-0.3,0.4-0.6,0.7-0.8
		c0.3-0.2,0.6-0.3,0.9-0.3c0.1,0,0.2,0,0.2,0c0.1,0,0.1,0,0.2,0L62.7,50.5z"/>
</g>
<g class="st1">
	<path class="st3" d="M63.5,52.6c0-0.9,0.3-1.7,0.8-2.3c0.5-0.6,1.2-0.9,2.1-0.9c0.9,0,1.6,0.3,2.1,0.9c0.5,0.6,0.8,1.4,0.8,2.3v0.1
		c0,0.9-0.3,1.7-0.8,2.3c-0.5,0.6-1.2,0.9-2.1,0.9s-1.6-0.3-2.1-0.9s-0.8-1.4-0.8-2.3L63.5,52.6L63.5,52.6z M64.7,52.7
		c0,0.7,0.1,1.2,0.4,1.7c0.3,0.4,0.7,0.7,1.3,0.7c0.6,0,1-0.2,1.3-0.7s0.4-1,0.4-1.7v-0.1c0-0.7-0.1-1.2-0.4-1.7s-0.7-0.7-1.3-0.7
		c-0.6,0-1,0.2-1.3,0.7c-0.3,0.4-0.4,1-0.4,1.7L64.7,52.7L64.7,52.7z"/>
	<path class="st3" d="M71.7,49.5l0.1,0.9c0.2-0.3,0.5-0.6,0.8-0.8c0.3-0.2,0.7-0.3,1.1-0.3c0.7,0,1.2,0.2,1.6,0.6
		c0.4,0.4,0.6,1,0.6,1.9v4h-1.2v-4c0-0.6-0.1-1-0.3-1.2c-0.2-0.2-0.6-0.4-1-0.4c-0.4,0-0.7,0.1-0.9,0.2s-0.4,0.3-0.6,0.6v4.7h-1.2
		v-6.3L71.7,49.5L71.7,49.5z"/>
	<path class="st3" d="M77.2,52.6c0-0.9,0.3-1.7,0.8-2.3c0.5-0.6,1.2-0.9,2.1-0.9c0.9,0,1.6,0.3,2.1,0.9s0.8,1.4,0.8,2.3v0.1
		c0,0.9-0.3,1.7-0.8,2.3s-1.2,0.9-2.1,0.9s-1.6-0.3-2.1-0.9c-0.5-0.6-0.8-1.4-0.8-2.3L77.2,52.6L77.2,52.6z M78.3,52.7
		c0,0.7,0.1,1.2,0.4,1.7S79.5,55,80,55c0.6,0,1-0.2,1.3-0.7s0.4-1,0.4-1.7v-0.1c0-0.7-0.1-1.2-0.4-1.7s-0.7-0.7-1.3-0.7
		c-0.6,0-1,0.2-1.3,0.7s-0.4,1-0.4,1.7L78.3,52.7L78.3,52.7z"/>
	<path class="st3" d="M85.3,49.5l0.1,0.8c0.2-0.3,0.5-0.5,0.8-0.7c0.3-0.2,0.7-0.2,1.1-0.2c0.4,0,0.8,0.1,1.1,0.3
		c0.3,0.2,0.5,0.5,0.7,0.9c0.2-0.4,0.5-0.6,0.8-0.9s0.7-0.3,1.1-0.3c0.6,0,1.2,0.2,1.5,0.7c0.4,0.4,0.6,1.1,0.6,2v3.8h-1.2V52
		c0-0.6-0.1-1.1-0.3-1.3s-0.5-0.4-1-0.4c-0.4,0-0.7,0.1-1,0.4c-0.2,0.3-0.4,0.6-0.4,1v0v4h-1.2V52c0-0.6-0.1-1-0.3-1.3
		s-0.5-0.4-1-0.4c-0.4,0-0.6,0.1-0.9,0.2c-0.2,0.1-0.4,0.3-0.5,0.6v4.7h-1.2v-6.3L85.3,49.5L85.3,49.5z"/>
	<path class="st3" d="M96,47.8h-1.2v-1.2H96V47.8z M96,55.8h-1.2v-6.3H96V55.8z"/>
	<path class="st3" d="M100.4,55.9c-0.9,0-1.6-0.3-2.1-0.9c-0.5-0.6-0.8-1.3-0.8-2.3v-0.3c0-0.9,0.3-1.7,0.8-2.3
		c0.5-0.6,1.2-0.9,1.9-0.9c0.8,0,1.5,0.3,1.9,0.8c0.4,0.5,0.6,1.2,0.6,2.1v0.6h-4.1l0,0c0,0.6,0.1,1.2,0.4,1.6
		c0.3,0.4,0.7,0.6,1.3,0.6c0.4,0,0.7-0.1,1-0.2c0.3-0.1,0.5-0.3,0.8-0.5l0.5,0.8c-0.2,0.2-0.5,0.4-0.9,0.6S100.9,55.9,100.4,55.9z
		 M100.2,50.3c-0.4,0-0.7,0.2-1,0.5c-0.3,0.3-0.4,0.7-0.5,1.2l0,0h2.9v-0.1c0-0.5-0.1-0.8-0.3-1.1C101.1,50.4,100.7,50.3,100.2,50.3
		z"/>
	<path class="st3" d="M110.9,55.8c0-0.2-0.1-0.4-0.1-0.5c0-0.1,0-0.3,0-0.4c-0.2,0.3-0.5,0.6-0.8,0.8s-0.7,0.3-1.1,0.3
		c-0.7,0-1.2-0.2-1.5-0.5s-0.5-0.8-0.5-1.4c0-0.6,0.2-1.1,0.7-1.4c0.5-0.3,1.2-0.5,2-0.5h1.3v-0.6c0-0.4-0.1-0.7-0.3-0.9
		s-0.5-0.3-1-0.3c-0.4,0-0.7,0.1-0.9,0.3c-0.2,0.2-0.3,0.4-0.3,0.7l-1.1,0l0,0c0-0.5,0.2-0.9,0.6-1.3c0.5-0.4,1.1-0.6,1.8-0.6
		c0.7,0,1.3,0.2,1.7,0.5c0.4,0.4,0.7,0.9,0.7,1.6v3.1c0,0.2,0,0.4,0,0.7c0,0.2,0.1,0.4,0.1,0.6L110.9,55.8L110.9,55.8L110.9,55.8z
		 M109.9,48.3H109l-1.5-1.5l0,0h1.3L109.9,48.3z M109,55c0.4,0,0.8-0.1,1.1-0.3c0.3-0.2,0.6-0.5,0.7-0.7v-1h-1.3
		c-0.5,0-0.8,0.1-1.1,0.4c-0.3,0.2-0.4,0.5-0.4,0.8c0,0.3,0.1,0.5,0.3,0.7C108.4,54.9,108.7,55,109,55z"/>
	<path class="st3" d="M122,52.9c0,0.9-0.2,1.7-0.7,2.2c-0.4,0.6-1,0.8-1.8,0.8c-0.4,0-0.7-0.1-1-0.2c-0.3-0.1-0.5-0.3-0.8-0.6v3.1
		h-1.2v-8.8h0.9l0.2,0.8c0.2-0.3,0.5-0.5,0.8-0.7c0.3-0.2,0.7-0.2,1.1-0.2c0.8,0,1.4,0.3,1.8,0.9s0.7,1.4,0.7,2.5V52.9L122,52.9z
		 M120.9,52.8c0-0.7-0.1-1.3-0.4-1.8c-0.3-0.5-0.7-0.7-1.3-0.7c-0.3,0-0.6,0.1-0.9,0.2c-0.2,0.2-0.4,0.4-0.6,0.6v3.1
		c0.1,0.3,0.3,0.5,0.6,0.6c0.2,0.1,0.5,0.2,0.9,0.2c0.5,0,1-0.2,1.2-0.6c0.3-0.4,0.4-0.9,0.4-1.6L120.9,52.8L120.9,52.8z"/>
	<path class="st3" d="M123.2,52.6c0-0.9,0.3-1.7,0.8-2.3c0.5-0.6,1.2-0.9,2.1-0.9c0.9,0,1.6,0.3,2.1,0.9s0.8,1.4,0.8,2.3v0.1
		c0,0.9-0.3,1.7-0.8,2.3s-1.2,0.9-2.1,0.9s-1.6-0.3-2.1-0.9c-0.5-0.6-0.8-1.4-0.8-2.3V52.6z M124.3,52.7c0,0.7,0.1,1.2,0.4,1.7
		s0.7,0.7,1.3,0.7c0.6,0,1-0.2,1.3-0.7s0.4-1,0.4-1.7v-0.1c0-0.7-0.1-1.2-0.4-1.7s-0.7-0.7-1.3-0.7c-0.6,0-1,0.2-1.3,0.7
		s-0.4,1-0.4,1.7L124.3,52.7L124.3,52.7z"/>
</g>
<g class="st1">
	<path class="st3" d="M133.3,50.5l-0.6,0c-0.3,0-0.6,0.1-0.8,0.2s-0.4,0.3-0.5,0.6v4.5h-1.2v-6.3h1l0.1,0.9c0.2-0.3,0.4-0.6,0.7-0.8
		c0.3-0.2,0.6-0.3,0.9-0.3c0.1,0,0.2,0,0.2,0c0.1,0,0.1,0,0.2,0L133.3,50.5z"/>
</g>
<g class="st1">
	<path class="st3" d="M136.2,47.9v1.5h1.2v0.9h-1.2v3.8c0,0.3,0.1,0.5,0.2,0.6s0.3,0.2,0.5,0.2c0.1,0,0.1,0,0.2,0s0.1,0,0.2-0.1
		l0.2,0.8c-0.1,0.1-0.2,0.1-0.4,0.2s-0.3,0.1-0.5,0.1c-0.5,0-0.8-0.1-1.1-0.4c-0.3-0.3-0.4-0.7-0.4-1.3v-3.8h-1v-0.9h1v-1.5H136.2z"
		/>
	<path class="st3" d="M141.2,55.9c-0.9,0-1.6-0.3-2.1-0.9c-0.5-0.6-0.8-1.3-0.8-2.3v-0.3c0-0.9,0.3-1.7,0.8-2.3
		c0.5-0.6,1.2-0.9,1.9-0.9c0.8,0,1.5,0.3,1.9,0.8c0.4,0.5,0.6,1.2,0.6,2.1v0.6h-4.1l0,0c0,0.6,0.1,1.2,0.4,1.6
		c0.3,0.4,0.7,0.6,1.3,0.6c0.4,0,0.7-0.1,1-0.2c0.3-0.1,0.5-0.3,0.8-0.5l0.5,0.8c-0.2,0.2-0.5,0.4-0.9,0.6S141.8,55.9,141.2,55.9z
		 M141.1,50.3c-0.4,0-0.7,0.2-1,0.5c-0.3,0.3-0.4,0.7-0.5,1.2l0,0h2.9v-0.1c0-0.5-0.1-0.8-0.3-1.1C141.9,50.4,141.5,50.3,141.1,50.3
		z M141.5,46.8h1.3l0,0l-1.6,1.5h-0.9L141.5,46.8z"/>
	<path class="st3" d="M147.5,55.9c-0.9,0-1.6-0.3-2.1-0.9s-0.8-1.3-0.8-2.3v-0.3c0-0.9,0.3-1.7,0.8-2.3c0.5-0.6,1.2-0.9,1.9-0.9
		c0.8,0,1.5,0.3,1.9,0.8c0.4,0.5,0.6,1.2,0.6,2.1v0.6h-4.1l0,0c0,0.6,0.1,1.2,0.4,1.6s0.7,0.6,1.3,0.6c0.4,0,0.7-0.1,1-0.2
		c0.3-0.1,0.5-0.3,0.8-0.5l0.5,0.8c-0.2,0.2-0.5,0.4-0.9,0.6S148,55.9,147.5,55.9z M147.3,50.3c-0.4,0-0.7,0.2-1,0.5
		c-0.3,0.3-0.4,0.7-0.5,1.2l0,0h2.9v-0.1c0-0.5-0.1-0.8-0.3-1.1C148.2,50.4,147.8,50.3,147.3,50.3z"/>
	<path class="st3" d="M153.9,52.8c0-1,0.2-1.8,0.7-2.5c0.4-0.6,1-0.9,1.8-0.9c0.4,0,0.7,0.1,1,0.2c0.3,0.1,0.5,0.3,0.7,0.6v-3.5h1.2
		v9.1h-0.9l-0.2-0.8c-0.2,0.3-0.5,0.5-0.8,0.7s-0.7,0.2-1.1,0.2c-0.8,0-1.4-0.3-1.8-0.8c-0.4-0.6-0.7-1.3-0.7-2.2L153.9,52.8
		L153.9,52.8L153.9,52.8z M155,52.9c0,0.6,0.1,1.2,0.4,1.5c0.3,0.4,0.7,0.6,1.2,0.6c0.3,0,0.6-0.1,0.9-0.2c0.2-0.2,0.4-0.4,0.6-0.7
		v-3c-0.1-0.3-0.3-0.5-0.6-0.6c-0.2-0.2-0.5-0.2-0.9-0.2c-0.6,0-1,0.2-1.2,0.7c-0.3,0.5-0.4,1.1-0.4,1.8L155,52.9L155,52.9z"/>
	<path class="st3" d="M163.6,55.9c-0.9,0-1.6-0.3-2.1-0.9s-0.8-1.3-0.8-2.3v-0.3c0-0.9,0.3-1.7,0.8-2.3c0.5-0.6,1.2-0.9,1.9-0.9
		c0.8,0,1.5,0.3,1.9,0.8c0.4,0.5,0.6,1.2,0.6,2.1v0.6h-4.1l0,0c0,0.6,0.1,1.2,0.4,1.6s0.7,0.6,1.3,0.6c0.4,0,0.7-0.1,1-0.2
		c0.3-0.1,0.5-0.3,0.8-0.5l0.5,0.8c-0.2,0.2-0.5,0.4-0.9,0.6S164.1,55.9,163.6,55.9z M163.4,50.3c-0.4,0-0.7,0.2-1,0.5
		c-0.3,0.3-0.4,0.7-0.5,1.2l0,0h2.9v-0.1c0-0.5-0.1-0.8-0.3-1.1C164.2,50.4,163.9,50.3,163.4,50.3z"/>
	<path class="st3" d="M171.3,49.5l0.1,0.8c0.2-0.3,0.5-0.5,0.8-0.7c0.3-0.2,0.7-0.2,1.1-0.2s0.8,0.1,1.1,0.3
		c0.3,0.2,0.5,0.5,0.7,0.9c0.2-0.4,0.5-0.6,0.8-0.9c0.3-0.2,0.7-0.3,1.1-0.3c0.6,0,1.2,0.2,1.5,0.7c0.4,0.4,0.6,1.1,0.6,2v3.8h-1.2
		V52c0-0.6-0.1-1.1-0.3-1.3s-0.5-0.4-1-0.4c-0.4,0-0.7,0.1-1,0.4c-0.2,0.3-0.4,0.6-0.4,1v0v4h-1.2V52c0-0.6-0.1-1-0.3-1.3
		c-0.2-0.3-0.5-0.4-1-0.4c-0.4,0-0.6,0.1-0.9,0.2c-0.2,0.1-0.4,0.3-0.5,0.6v4.7h-1.2v-6.3L171.3,49.5L171.3,49.5z"/>
	<path class="st3" d="M184.6,55.8c0-0.2-0.1-0.4-0.1-0.5c0-0.1,0-0.3,0-0.4c-0.2,0.3-0.5,0.6-0.8,0.8c-0.3,0.2-0.7,0.3-1.1,0.3
		c-0.7,0-1.2-0.2-1.5-0.5c-0.3-0.3-0.5-0.8-0.5-1.4c0-0.6,0.2-1.1,0.7-1.4c0.5-0.3,1.2-0.5,2-0.5h1.3v-0.6c0-0.4-0.1-0.7-0.3-0.9
		c-0.2-0.2-0.5-0.3-1-0.3c-0.4,0-0.7,0.1-0.9,0.3c-0.2,0.2-0.3,0.4-0.3,0.7l-1.1,0l0,0c0-0.5,0.2-0.9,0.6-1.3
		c0.5-0.4,1.1-0.6,1.8-0.6c0.7,0,1.3,0.2,1.7,0.5c0.4,0.4,0.7,0.9,0.7,1.6v3.1c0,0.2,0,0.4,0,0.7c0,0.2,0.1,0.4,0.1,0.6L184.6,55.8
		L184.6,55.8L184.6,55.8z M182.7,55c0.4,0,0.8-0.1,1.1-0.3s0.6-0.5,0.7-0.7v-1h-1.3c-0.5,0-0.8,0.1-1.1,0.4
		c-0.3,0.2-0.4,0.5-0.4,0.8c0,0.3,0.1,0.5,0.3,0.7C182.1,54.9,182.4,55,182.7,55z"/>
	<path class="st3" d="M188.6,47.8h-1.2v-1.2h1.2V47.8z M188.6,55.8h-1.2v-6.3h1.2V55.8z"/>
	<path class="st3" d="M191.4,49.5l0.1,0.9c0.2-0.3,0.5-0.6,0.8-0.8s0.7-0.3,1.1-0.3c0.7,0,1.2,0.2,1.6,0.6c0.4,0.4,0.6,1,0.6,1.9v4
		h-1.2v-4c0-0.6-0.1-1-0.3-1.2s-0.6-0.4-1-0.4c-0.4,0-0.7,0.1-0.9,0.2s-0.4,0.3-0.6,0.6v4.7h-1.2v-6.3L191.4,49.5L191.4,49.5z"/>
</g>
</svg>
