<?xml version="1.0" encoding="utf-8"?>
<!-- Generator: Adobe Illustrator 16.0.0, SVG Export Plug-In . SVG Version: 6.00 Build 0)  -->
<!DOCTYPE svg PUBLIC "-//W3C//DTD SVG 1.1//EN" "http://www.w3.org/Graphics/SVG/1.1/DTD/svg11.dtd">
<svg version="1.1" id="Calque_1" xmlns="http://www.w3.org/2000/svg" xmlns:xlink="http://www.w3.org/1999/xlink" x="0px" y="0px"
	 width="20px" height="20px" viewBox="0 0 20 20" enable-background="new 0 0 20 20" xml:space="preserve">
<path fill="#FFFFFF" d="M19.33,15.959H0.674C0.302,15.959,0,15.656,0,15.285V5.169c0-0.372,0.302-0.674,0.674-0.674
	c0.372,0,0.674,0.302,0.674,0.674v9.442H19.33c0.373,0,0.675,0.301,0.675,0.674C20.005,15.656,19.703,15.959,19.33,15.959z"/>
<path fill="#FFFFFF" d="M19.33,15.959H0.674C0.302,15.959,0,15.656,0,15.285c0-0.373,0.302-0.674,0.674-0.674h17.981V5.169
	c0-0.372,0.304-0.674,0.675-0.674c0.373,0,0.675,0.302,0.675,0.674v10.116C20.005,15.656,19.703,15.959,19.33,15.959z"/>
<path fill="#FFFFFF" d="M19.33,5.844H0.674C0.302,5.844,0,5.542,0,5.169c0-0.372,0.302-0.674,0.674-0.674H19.33
	c0.373,0,0.675,0.302,0.675,0.674C20.005,5.542,19.703,5.844,19.33,5.844z"/>
<path fill="#FFFFFF" d="M10.002,10.677c-0.074,0-0.147-0.018-0.214-0.054L0.46,5.565C0.241,5.447,0.161,5.174,0.279,4.956
	c0.119-0.218,0.391-0.299,0.61-0.181l9.114,4.942l9.115-4.942c0.217-0.118,0.49-0.037,0.608,0.181s0.037,0.491-0.181,0.609
	l-9.328,5.058C10.15,10.659,10.077,10.677,10.002,10.677z"/>
</svg>
