<?xml version="1.0" encoding="utf-8"?>
<!-- Generator: Adobe Illustrator 16.0.0, SVG Export Plug-In . SVG Version: 6.00 Build 0)  -->
<!DOCTYPE svg PUBLIC "-//W3C//DTD SVG 1.1//EN" "http://www.w3.org/Graphics/SVG/1.1/DTD/svg11.dtd">
<svg version="1.1" id="Calque_1" xmlns="http://www.w3.org/2000/svg" xmlns:xlink="http://www.w3.org/1999/xlink" x="0px" y="0px"
	 width="224.017px" height="56.82px" viewBox="0 0 224.017 56.82" enable-background="new 0 0 224.017 56.82" xml:space="preserve">
<g>
	<defs>
		<rect id="SVGID_1_" y="0" width="224.017" height="56.82"/>
	</defs>
	<clipPath id="SVGID_2_">
		<use xlink:href="#SVGID_1_"  overflow="visible"/>
	</clipPath>
	<path clip-path="url(#SVGID_2_)" fill="#273378" d="M40.998,4.284C38.367,1.286,33.611,0,27.527,0H9.869
		C8.623,0,7.565,0.906,7.371,2.133l-7.352,46.63c-0.146,0.92,0.565,1.752,1.497,1.752h10.902l2.738-17.364l-0.085,0.543
		c0.195-1.228,1.245-2.133,2.488-2.133h5.181c10.177,0,18.145-4.133,20.472-16.09c0.069-0.355,0.129-0.699,0.181-1.036
		c-0.294-0.155-0.294-0.155,0,0C44.086,10.016,43.388,7.009,40.998,4.284"/>
	<path clip-path="url(#SVGID_2_)" fill="#283277" d="M153.629,26.333h-5.867c-0.561,0-1.086,0.28-1.401,0.744l-8.094,11.92
		l-3.429-11.455c-0.215-0.718-0.876-1.21-1.624-1.21h-5.767c-0.696,0-1.187,0.687-0.963,1.345l6.461,18.964l-6.076,8.574
		c-0.477,0.672,0.005,1.603,0.829,1.603h5.861c0.555,0,1.075-0.271,1.394-0.728l19.511-28.162
		C154.931,27.255,154.449,26.333,153.629,26.333 M114.403,37.696c-0.563,3.335-3.21,5.574-6.587,5.574
		c-1.693,0-3.049-0.544-3.921-1.575c-0.862-1.022-1.187-2.479-0.914-4.099c0.525-3.308,3.216-5.618,6.541-5.618
		c1.659,0,3.004,0.551,3.893,1.591C114.308,34.618,114.66,36.082,114.403,37.696 M122.539,26.333h-5.837
		c-0.5,0-0.927,0.364-1.006,0.859l-0.256,1.632l-0.405-0.591c-1.267-1.835-4.084-2.449-6.898-2.449
		c-6.448,0-11.956,4.887-13.029,11.742c-0.558,3.421,0.235,6.688,2.174,8.968c1.781,2.096,4.322,2.968,7.351,2.968
		c5.199,0,8.082-3.337,8.082-3.337l-0.261,1.621c-0.099,0.617,0.378,1.174,1.004,1.174h5.255c0.836,0,1.545-0.604,1.674-1.429
		l3.156-19.982C123.641,26.893,123.164,26.333,122.539,26.333 M87.51,26.475c-0.667,4.376-4.008,4.376-7.24,4.376h-1.84l1.291-8.17
		c0.077-0.494,0.503-0.856,1.002-0.856h0.844c2.2,0,4.279,0,5.35,1.253C87.559,23.826,87.751,24.939,87.51,26.475 M86.103,15.058
		h-12.19c-0.834,0-1.543,0.607-1.674,1.431L67.31,47.746c-0.097,0.617,0.379,1.175,1.003,1.175h5.822
		c0.833,0,1.541-0.607,1.672-1.43l1.332-8.433c0.129-0.824,0.839-1.431,1.672-1.431h3.857c8.029,0,12.665-3.887,13.875-11.589
		c0.545-3.365,0.021-6.012-1.555-7.866C93.254,16.136,90.182,15.058,86.103,15.058"/>
	<path clip-path="url(#SVGID_2_)" fill="#229AD7" d="M216.366,15.917l-5.002,31.831c-0.099,0.616,0.378,1.174,1.002,1.174h5.033
		c0.833,0,1.543-0.606,1.672-1.43l4.934-31.259c0.097-0.616-0.378-1.174-1.005-1.174h-5.63
		C216.869,15.059,216.443,15.421,216.366,15.917 M201.351,37.696c-0.564,3.335-3.211,5.574-6.589,5.574
		c-1.691,0-3.048-0.544-3.92-1.576c-0.864-1.021-1.188-2.479-0.914-4.098c0.524-3.308,3.216-5.618,6.541-5.618
		c1.658,0,3.004,0.551,3.893,1.591C201.255,34.618,201.607,36.082,201.351,37.696 M209.486,26.333h-5.837
		c-0.499,0-0.927,0.364-1.006,0.859l-0.256,1.632l-0.407-0.591c-1.265-1.835-4.081-2.449-6.896-2.449
		c-6.449,0-11.958,4.887-13.03,11.742c-0.558,3.421,0.234,6.688,2.174,8.968c1.78,2.096,4.322,2.968,7.352,2.968
		c5.2,0,8.082-3.337,8.082-3.337l-0.261,1.621c-0.099,0.617,0.378,1.174,1.004,1.174h5.256c0.834,0,1.543-0.604,1.674-1.429
		l3.155-19.982C210.588,26.893,210.111,26.333,209.486,26.333 M174.457,26.475c-0.667,4.376-4.008,4.376-7.241,4.376h-1.839
		l1.29-8.17c0.077-0.494,0.503-0.856,1.003-0.856h0.844c2.2,0,4.278,0,5.352,1.253C174.506,23.826,174.699,24.939,174.457,26.475
		 M173.05,15.058H160.86c-0.834,0-1.543,0.607-1.675,1.431l-4.929,31.257c-0.097,0.617,0.38,1.175,1.002,1.175h6.256
		c0.583,0,1.08-0.425,1.171-0.999l1.399-8.863c0.129-0.824,0.84-1.431,1.673-1.431h3.856c8.029,0,12.666-3.887,13.876-11.589
		c0.545-3.365,0.021-6.012-1.556-7.866C180.201,16.136,177.129,15.058,173.05,15.058"/>
	<path clip-path="url(#SVGID_2_)" fill="#273378" d="M40.998,4.284C38.367,1.286,33.611,0,27.527,0H9.869
		C8.623,0,7.565,0.906,7.371,2.133l-7.352,46.63c-0.146,0.92,0.565,1.752,1.497,1.752h10.902l2.738-17.364l-0.085,0.543
		c0.195-1.228,1.245-2.133,2.488-2.133h5.181c10.177,0,18.145-4.133,20.472-16.09c0.069-0.355,0.129-0.699,0.181-1.036
		c-0.294-0.155-0.294-0.155,0,0C44.086,10.016,43.388,7.009,40.998,4.284"/>
	<path clip-path="url(#SVGID_2_)" fill="#283277" d="M18.098,14.495c0.117-0.739,0.591-1.345,1.229-1.65
		c0.291-0.139,0.615-0.216,0.955-0.216h13.843c1.639,0,3.168,0.106,4.566,0.331c0.401,0.065,0.789,0.139,1.166,0.223
		s0.744,0.178,1.099,0.283c0.177,0.05,0.352,0.105,0.523,0.161c0.687,0.229,1.326,0.497,1.915,0.81
		c0.692-4.422-0.006-7.428-2.396-10.153C38.366,1.286,33.611,0,27.527,0H9.867C8.625,0,7.566,0.906,7.371,2.133L0.02,48.763
		c-0.147,0.921,0.566,1.752,1.496,1.752h10.903l2.738-17.365L18.098,14.495z"/>
	<path clip-path="url(#SVGID_2_)" fill="#229AD7" d="M43.394,14.436L43.394,14.436c-0.054,0.338-0.112,0.681-0.182,1.035
		C40.885,27.427,32.916,31.562,22.74,31.562h-5.182c-1.244,0-2.294,0.905-2.487,2.133l-2.653,16.82l-0.753,4.772
		c-0.127,0.805,0.496,1.533,1.309,1.533h9.19c1.088,0,2.014-0.792,2.183-1.865l0.091-0.468l1.731-10.977l0.112-0.607
		c0.17-1.073,1.095-1.866,2.183-1.866h1.375c8.903,0,15.873-3.616,17.91-14.077c0.85-4.37,0.41-8.019-1.839-10.584
		C45.227,15.601,44.381,14.958,43.394,14.436"/>
	<path clip-path="url(#SVGID_2_)" fill="#252A5F" d="M40.956,13.464c-0.355-0.102-0.721-0.196-1.099-0.28
		c-0.377-0.084-0.767-0.157-1.165-0.222c-1.399-0.227-2.927-0.333-4.568-0.333H20.282c-0.341,0-0.665,0.077-0.954,0.217
		c-0.64,0.307-1.113,0.91-1.229,1.65L15.157,33.15l-0.086,0.543c0.194-1.227,1.243-2.133,2.488-2.133h5.181
		c10.177,0,18.146-4.133,20.473-16.09c0.069-0.355,0.127-0.697,0.181-1.035c-0.589-0.311-1.228-0.579-1.915-0.808
		C41.308,13.571,41.134,13.517,40.956,13.464"/>
</g>
</svg>
