<?xml version="1.0" encoding="utf-8"?>
<!-- Generator: Adobe Illustrator 17.0.0, SVG Export Plug-In . SVG Version: 6.00 Build 0)  -->
<!DOCTYPE svg PUBLIC "-//W3C//DTD SVG 1.1//EN" "http://www.w3.org/Graphics/SVG/1.1/DTD/svg11.dtd" [
	<!ENTITY ns_extend "http://ns.adobe.com/Extensibility/1.0/">
	<!ENTITY ns_ai "http://ns.adobe.com/AdobeIllustrator/10.0/">
	<!ENTITY ns_graphs "http://ns.adobe.com/Graphs/1.0/">
	<!ENTITY ns_vars "http://ns.adobe.com/Variables/1.0/">
	<!ENTITY ns_imrep "http://ns.adobe.com/ImageReplacement/1.0/">
	<!ENTITY ns_sfw "http://ns.adobe.com/SaveForWeb/1.0/">
	<!ENTITY ns_custom "http://ns.adobe.com/GenericCustomNamespace/1.0/">
	<!ENTITY ns_adobe_xpath "http://ns.adobe.com/XPath/1.0/">
]>
<svg version="1.1" id="Calque_1" xmlns:x="&ns_extend;" xmlns:i="&ns_ai;" xmlns:graph="&ns_graphs;"
	 xmlns="http://www.w3.org/2000/svg" xmlns:xlink="http://www.w3.org/1999/xlink" x="0px" y="0px" width="768px" height="1024px"
	 viewBox="0 0 768 1024" enable-background="new 0 0 768 1024" xml:space="preserve">
<metadata>
	<sfw  xmlns="&ns_sfw;">
		<slices></slices>
		<sliceSourceBounds  y="-363.516" x="-364.516" width="768.032" height="768.032" bottomLeftOrigin="true"></sliceSourceBounds>
	</sfw>
</metadata>
<g id="Layer_574">
	<g>
		<circle fill="#2DAAE1" cx="384" cy="512" r="384.016"/>
		<g>
			<path fill="#FFFFFF" d="M610.768,327.072c-19.024,11.12-40.128,19.2-62.56,23.552C530.272,331.776,504.672,320,476.336,320
				c-54.368,0-98.464,43.408-98.464,96.944c0,7.6,0.88,14.976,2.528,22.08c-81.84-4.048-154.4-42.64-202.976-101.28
				c-8.464,14.304-13.344,30.96-13.344,48.736c0,33.616,17.424,63.296,43.824,80.672c-16.128-0.512-31.328-4.864-44.608-12.112
				c0,0.4,0,0.816,0,1.216c0,46.96,33.952,86.144,79.008,95.072c-8.272,2.208-16.96,3.392-25.968,3.392
				c-6.336,0-12.496-0.608-18.528-1.744c12.56,38.496,48.912,66.544,92,67.328c-33.712,26-76.16,41.504-122.32,41.504
				c-7.968,0-15.776-0.464-23.504-1.36C187.584,687.952,239.376,704,294.96,704c181.152,0,280.192-147.696,280.192-275.808
				c0-4.192-0.064-8.4-0.256-12.544c19.216-13.664,35.936-30.736,49.12-50.192c-17.648,7.728-36.624,12.912-56.56,15.264
				C587.808,368.72,603.392,349.728,610.768,327.072z"/>
		</g>
		<circle fill="#2DAAE1" cx="384" cy="512" r="384.016"/>
		<g>
			<path fill="#FFFFFF" d="M610.768,327.072c-19.024,11.12-40.128,19.2-62.56,23.552C530.272,331.776,504.672,320,476.336,320
				c-54.368,0-98.464,43.408-98.464,96.944c0,7.6,0.88,14.976,2.528,22.08c-81.84-4.048-154.4-42.64-202.976-101.28
				c-8.464,14.304-13.344,30.96-13.344,48.736c0,33.616,17.424,63.296,43.824,80.672c-16.128-0.512-31.328-4.864-44.608-12.112
				c0,0.4,0,0.816,0,1.216c0,46.96,33.952,86.144,79.008,95.072c-8.272,2.208-16.96,3.392-25.968,3.392
				c-6.336,0-12.496-0.608-18.528-1.744c12.56,38.496,48.912,66.544,92,67.328c-33.712,26-76.16,41.504-122.32,41.504
				c-7.968,0-15.776-0.464-23.504-1.36C187.584,687.952,239.376,704,294.96,704c181.152,0,280.192-147.696,280.192-275.808
				c0-4.192-0.064-8.4-0.256-12.544c19.216-13.664,35.936-30.736,49.12-50.192c-17.648,7.728-36.624,12.912-56.56,15.264
				C587.808,368.72,603.392,349.728,610.768,327.072z"/>
		</g>
		<circle fill="#F32063" cx="384" cy="512" r="384.016"/>
		<g>
			<path fill="#FFFFFF" d="M610.768,327.072c-19.024,11.12-40.128,19.2-62.56,23.552C530.272,331.776,504.672,320,476.336,320
				c-54.368,0-98.464,43.408-98.464,96.944c0,7.6,0.88,14.976,2.528,22.08c-81.84-4.048-154.4-42.64-202.976-101.28
				c-8.464,14.304-13.344,30.96-13.344,48.736c0,33.616,17.424,63.296,43.824,80.672c-16.128-0.512-31.328-4.864-44.608-12.112
				c0,0.4,0,0.816,0,1.216c0,46.96,33.952,86.144,79.008,95.072c-8.272,2.208-16.96,3.392-25.968,3.392
				c-6.336,0-12.496-0.608-18.528-1.744c12.56,38.496,48.912,66.544,92,67.328c-33.712,26-76.16,41.504-122.32,41.504
				c-7.968,0-15.776-0.464-23.504-1.36C187.584,687.952,239.376,704,294.96,704c181.152,0,280.192-147.696,280.192-275.808
				c0-4.192-0.064-8.4-0.256-12.544c19.216-13.664,35.936-30.736,49.12-50.192c-17.648,7.728-36.624,12.912-56.56,15.264
				C587.808,368.72,603.392,349.728,610.768,327.072z"/>
		</g>
	</g>
</g>
<g id="Layer_1">
</g>
</svg>
