<?xml version="1.0" encoding="utf-8"?>
<!-- Generator: Adobe Illustrator 16.0.0, SVG Export Plug-In . SVG Version: 6.00 Build 0)  -->
<!DOCTYPE svg PUBLIC "-//W3C//DTD SVG 1.1//EN" "http://www.w3.org/Graphics/SVG/1.1/DTD/svg11.dtd">
<svg version="1.1" id="Calque_1" xmlns="http://www.w3.org/2000/svg" xmlns:xlink="http://www.w3.org/1999/xlink" x="0px" y="0px"
	 width="595.279px" height="151.492px" viewBox="0 0 595.279 151.492" enable-background="new 0 0 595.279 151.492"
	 xml:space="preserve">
<g>
	<path fill="#E52C65" d="M408.643,57.083c0,0-5.576-10.549-20.195-10.549c-14.618,0-21.852,11.604-21.852,21.4
		c0,7.223,1.887,17.477,14.293,26.957c0.024-0.106,0.063-0.211,0.123-0.311l9.805-15.959l-1.819-1.118
		c-1.096-0.673-1.162-2.344-0.162-3.975l1.547-2.516l3.214-5.232c0.305-0.495,0.952-0.649,1.445-0.346
		c0.495,0.304,0.649,0.951,0.347,1.446l-2.664,4.336l1.935,1.189l2.695-4.326c0.306-0.49,0.95-0.642,1.442-0.339
		c0.002,0.001,0.004,0.002,0.006,0.003c0.492,0.308,0.644,0.956,0.336,1.449l-2.688,4.313l1.99,1.223l2.664-4.336
		c0.305-0.496,0.952-0.65,1.446-0.346c0.495,0.304,0.649,0.951,0.346,1.446l-3.214,5.232l-1.546,2.517l-0.197,0.319
		c-0.048,0.078-0.106,0.146-0.171,0.207c-0.98,1.244-2.282,1.719-3.251,1.125l-1.908-1.174l-9.805,15.961
		c-0.093,0.15-0.22,0.266-0.363,0.351c1.854,1.313,3.919,2.608,6.219,3.876l16.959-27.605c0.223-0.361,0.64-0.554,1.06-0.488
		c0.419,0.067,0.758,0.377,0.856,0.789c0.089,0.354,2.059,8.769-3.793,18.292c-0.185,0.299-0.505,0.486-0.855,0.5l-6.688,0.258
		l-5.68,9.246c2.427,1.252,5.092,2.475,8.026,3.654c0,0,32.703-13.412,32.703-34.361C431.247,49.248,409.095,56.029,408.643,57.083z
		"/>
	<path fill="#E52C65" d="M396.344,78.143l0.995-1.619l-2.894-1.777c-0.001-0.001-0.004-0.002-0.005-0.003l-2.819-1.731l-0.849,1.38
		c-0.001,0.002-0.002,0.003-0.002,0.004l-0.146,0.235c-0.329,0.539-0.397,0.978-0.391,1.167l5.245,3.222
		C395.652,78.941,396.013,78.682,396.344,78.143z"/>
	<path fill="#E52C65" d="M405.793,76.037l-8.271,13.462l4.713-0.181C405.363,83.989,405.864,79.033,405.793,76.037z"/>
</g>
<g enable-background="new    ">
	<path fill="#545454" d="M171.049,62.677v15.864h8.951c0.714,0,1.261,0.174,1.643,0.521c0.382,0.347,0.573,0.783,0.573,1.309
		c0,0.535-0.188,0.969-0.565,1.301s-0.927,0.498-1.65,0.498h-10.661c-0.961,0-1.653-0.213-2.074-0.64
		c-0.421-0.426-0.632-1.115-0.632-2.066V62.677c0-0.892,0.201-1.562,0.603-2.007c0.401-0.446,0.929-0.669,1.583-0.669
		c0.664,0,1.202,0.221,1.613,0.662C170.843,61.103,171.049,61.775,171.049,62.677z"/>
	<path fill="#545454" d="M184.534,64.505h-0.223c-0.556,0-1.059-0.225-1.51-0.676s-0.677-0.984-0.677-1.599
		c0-0.634,0.226-1.165,0.677-1.591S183.811,60,184.475,60c0.456,0,0.882,0.131,1.278,0.394s0.704,0.644,0.922,1.145
		c0.218,0.501,0.327,1.113,0.327,1.836c0,0.981-0.208,1.901-0.624,2.758s-0.925,1.536-1.524,2.037c-0.6,0.5-1.143,0.75-1.628,0.75
		c-0.308,0-0.558-0.097-0.751-0.289c-0.193-0.193-0.29-0.429-0.29-0.707c0-0.445,0.203-0.772,0.61-0.981
		c0.524-0.307,0.937-0.644,1.233-1.011C184.326,65.566,184.494,65.09,184.534,64.505z"/>
	<path fill="#545454" d="M201.573,80.251c-0.981,0.764-1.931,1.336-2.848,1.717c-0.916,0.382-1.945,0.573-3.085,0.573
		c-1.04,0-1.955-0.206-2.743-0.617s-1.396-0.969-1.821-1.673s-0.64-1.467-0.64-2.29c0-1.109,0.353-2.057,1.056-2.84
		c0.704-0.782,1.671-1.309,2.899-1.576c0.258-0.059,0.897-0.193,1.918-0.401c1.021-0.208,1.896-0.398,2.625-0.572
		c0.729-0.173,1.519-0.384,2.371-0.632c-0.05-1.07-0.266-1.855-0.646-2.356c-0.382-0.501-1.173-0.751-2.372-0.751
		c-1.03,0-1.807,0.144-2.326,0.432c-0.521,0.287-0.967,0.719-1.339,1.293c-0.371,0.575-0.634,0.954-0.788,1.138
		c-0.153,0.184-0.482,0.275-0.988,0.275c-0.456,0-0.851-0.146-1.182-0.439c-0.333-0.292-0.499-0.666-0.499-1.122
		c0-0.714,0.253-1.407,0.759-2.082c0.506-0.674,1.294-1.229,2.364-1.665c1.07-0.436,2.403-0.654,3.999-0.654
		c1.784,0,3.188,0.211,4.208,0.632c1.021,0.422,1.742,1.088,2.163,2c0.422,0.912,0.632,2.121,0.632,3.628
		c0,0.951-0.002,1.76-0.007,2.424s-0.013,1.402-0.022,2.215c0,0.764,0.126,1.56,0.379,2.387c0.253,0.828,0.379,1.36,0.379,1.599
		c0,0.416-0.195,0.795-0.587,1.137c-0.392,0.343-0.835,0.514-1.331,0.514c-0.416,0-0.827-0.196-1.233-0.588
		C202.46,81.562,202.03,80.994,201.573,80.251z M201.306,74.378c-0.595,0.218-1.46,0.448-2.595,0.691s-1.92,0.422-2.356,0.535
		c-0.437,0.114-0.853,0.337-1.249,0.669s-0.595,0.796-0.595,1.391c0,0.614,0.233,1.138,0.699,1.568
		c0.466,0.432,1.075,0.646,1.828,0.646c0.804,0,1.544-0.176,2.224-0.527c0.679-0.352,1.177-0.806,1.494-1.36
		c0.366-0.614,0.55-1.626,0.55-3.033V74.378z"/>
	<path fill="#545454" d="M222.909,74.586v5.397c0,0.853-0.193,1.492-0.58,1.918c-0.386,0.426-0.896,0.64-1.531,0.64
		c-0.614,0-1.112-0.214-1.494-0.64s-0.572-1.065-0.572-1.918v-6.468c0-1.021-0.035-1.814-0.104-2.379
		c-0.069-0.565-0.258-1.028-0.564-1.391c-0.308-0.361-0.793-0.542-1.457-0.542c-1.329,0-2.203,0.456-2.625,1.367
		c-0.421,0.912-0.632,2.221-0.632,3.926v5.486c0,0.843-0.19,1.479-0.572,1.91c-0.382,0.432-0.885,0.647-1.509,0.647
		c-0.615,0-1.118-0.216-1.509-0.647c-0.393-0.431-0.588-1.067-0.588-1.91V68.371c0-0.763,0.176-1.343,0.528-1.739
		c0.352-0.396,0.814-0.595,1.39-0.595c0.556,0,1.019,0.186,1.391,0.558c0.371,0.371,0.558,0.885,0.558,1.538v0.387
		c0.703-0.842,1.457-1.462,2.26-1.858s1.695-0.595,2.676-0.595c1.021,0,1.898,0.203,2.632,0.609
		c0.733,0.407,1.339,1.021,1.814,1.844c0.684-0.832,1.417-1.449,2.2-1.851s1.65-0.603,2.602-0.603c1.11,0,2.067,0.219,2.87,0.654
		c0.803,0.437,1.402,1.061,1.799,1.873c0.347,0.734,0.521,1.889,0.521,3.465v7.925c0,0.853-0.193,1.492-0.58,1.918
		s-0.896,0.64-1.531,0.64c-0.614,0-1.117-0.216-1.509-0.647c-0.392-0.431-0.588-1.067-0.588-1.91v-6.824
		c0-0.872-0.037-1.571-0.111-2.097s-0.275-0.967-0.602-1.323c-0.327-0.357-0.823-0.535-1.487-0.535
		c-0.535,0-1.043,0.158-1.524,0.476c-0.48,0.317-0.854,0.743-1.122,1.278C223.058,71.643,222.909,72.852,222.909,74.586z"/>
	<path fill="#545454" d="M251.546,74.289c0,1.209-0.188,2.324-0.565,3.345c-0.377,1.021-0.922,1.898-1.635,2.632
		c-0.714,0.733-1.566,1.296-2.558,1.688s-2.106,0.588-3.346,0.588c-1.229,0-2.334-0.199-3.315-0.595
		c-0.981-0.396-1.831-0.964-2.55-1.703c-0.719-0.738-1.264-1.61-1.636-2.616s-0.558-2.119-0.558-3.338
		c0-1.229,0.188-2.354,0.565-3.375c0.376-1.021,0.916-1.894,1.62-2.617s1.557-1.281,2.558-1.673s2.106-0.587,3.315-0.587
		c1.229,0,2.344,0.198,3.346,0.595c1.001,0.396,1.858,0.961,2.572,1.694c0.714,0.734,1.256,1.606,1.628,2.617
		S251.546,73.069,251.546,74.289z M247.472,74.289c0-1.655-0.364-2.944-1.093-3.866s-1.707-1.383-2.937-1.383
		c-0.793,0-1.492,0.206-2.097,0.617s-1.07,1.019-1.397,1.821s-0.49,1.739-0.49,2.811c0,1.061,0.161,1.987,0.483,2.78
		c0.321,0.793,0.782,1.4,1.383,1.821c0.6,0.421,1.306,0.632,2.118,0.632c1.229,0,2.208-0.463,2.937-1.391
		C247.108,77.205,247.472,75.924,247.472,74.289z"/>
	<path fill="#545454" d="M265.283,80.251V79.73c-0.485,0.615-0.996,1.13-1.531,1.546c-0.535,0.417-1.12,0.727-1.754,0.93
		c-0.635,0.203-1.358,0.305-2.171,0.305c-0.981,0-1.861-0.203-2.64-0.609s-1.38-0.967-1.807-1.68
		c-0.505-0.863-0.758-2.102-0.758-3.718V68.46c0-0.813,0.184-1.42,0.55-1.821c0.367-0.401,0.853-0.602,1.457-0.602
		c0.615,0,1.11,0.203,1.487,0.609c0.376,0.406,0.564,1.011,0.564,1.813v6.498c0,0.941,0.08,1.732,0.238,2.371
		c0.158,0.64,0.443,1.141,0.854,1.502c0.412,0.362,0.969,0.543,1.673,0.543c0.685,0,1.328-0.203,1.934-0.61
		c0.604-0.406,1.045-0.937,1.323-1.591c0.228-0.574,0.342-1.833,0.342-3.776V68.46c0-0.803,0.188-1.407,0.564-1.813
		s0.867-0.609,1.473-0.609c0.604,0,1.09,0.2,1.457,0.602c0.366,0.401,0.55,1.009,0.55,1.821v11.762c0,0.772-0.176,1.353-0.527,1.739
		c-0.353,0.387-0.806,0.58-1.361,0.58c-0.555,0-1.014-0.201-1.375-0.603C265.464,81.537,265.283,80.975,265.283,80.251z"/>
	<path fill="#545454" d="M277.164,76.683v3.39c0,0.823-0.193,1.44-0.58,1.852s-0.877,0.617-1.472,0.617
		c-0.585,0-1.066-0.209-1.442-0.625c-0.377-0.416-0.565-1.03-0.565-1.844v-11.3c0-1.823,0.659-2.735,1.978-2.735
		c0.674,0,1.16,0.213,1.457,0.639c0.298,0.427,0.461,1.056,0.491,1.889c0.485-0.833,0.983-1.462,1.494-1.889
		c0.511-0.426,1.191-0.639,2.044-0.639s1.681,0.213,2.483,0.639c0.803,0.427,1.204,0.991,1.204,1.695
		c0,0.496-0.171,0.904-0.513,1.227s-0.712,0.483-1.107,0.483c-0.149,0-0.509-0.092-1.078-0.275c-0.57-0.183-1.073-0.274-1.51-0.274
		c-0.595,0-1.08,0.155-1.457,0.468c-0.376,0.313-0.669,0.776-0.877,1.391s-0.352,1.346-0.431,2.192
		C277.203,74.43,277.164,75.463,277.164,76.683z"/>
	<path fill="#545454" d="M299.779,63.777h-8.697v5.576h7.271c0.674,0,1.177,0.151,1.509,0.453c0.332,0.303,0.498,0.706,0.498,1.212
		s-0.169,0.907-0.506,1.204c-0.337,0.298-0.837,0.446-1.501,0.446h-7.271v7.182c0,0.912-0.206,1.589-0.617,2.029
		c-0.412,0.441-0.939,0.662-1.584,0.662c-0.654,0-1.187-0.224-1.598-0.67c-0.412-0.445-0.617-1.119-0.617-2.021V63.078
		c0-0.634,0.094-1.152,0.282-1.554s0.483-0.694,0.885-0.877c0.401-0.183,0.914-0.275,1.539-0.275h10.407
		c0.704,0,1.227,0.156,1.569,0.468c0.342,0.312,0.513,0.721,0.513,1.227c0,0.516-0.171,0.929-0.513,1.242
		C301.005,63.621,300.483,63.777,299.779,63.777z"/>
	<path fill="#545454" d="M318.9,74.289c0,1.209-0.188,2.324-0.565,3.345c-0.377,1.021-0.922,1.898-1.635,2.632
		c-0.714,0.733-1.566,1.296-2.558,1.688s-2.106,0.588-3.346,0.588c-1.229,0-2.334-0.199-3.315-0.595
		c-0.981-0.396-1.831-0.964-2.55-1.703c-0.719-0.738-1.264-1.61-1.636-2.616s-0.558-2.119-0.558-3.338
		c0-1.229,0.188-2.354,0.565-3.375c0.376-1.021,0.916-1.894,1.62-2.617s1.557-1.281,2.558-1.673s2.106-0.587,3.315-0.587
		c1.229,0,2.344,0.198,3.346,0.595c1.001,0.396,1.858,0.961,2.572,1.694c0.714,0.734,1.256,1.606,1.628,2.617
		S318.9,73.069,318.9,74.289z M314.825,74.289c0-1.655-0.364-2.944-1.093-3.866s-1.707-1.383-2.937-1.383
		c-0.793,0-1.492,0.206-2.097,0.617s-1.07,1.019-1.397,1.821s-0.49,1.739-0.49,2.811c0,1.061,0.161,1.987,0.483,2.78
		c0.321,0.793,0.782,1.4,1.383,1.821c0.6,0.421,1.306,0.632,2.118,0.632c1.229,0,2.208-0.463,2.937-1.391
		C314.461,77.205,314.825,75.924,314.825,74.289z"/>
	<path fill="#545454" d="M337.291,74.289c0,1.209-0.188,2.324-0.565,3.345c-0.377,1.021-0.922,1.898-1.635,2.632
		c-0.714,0.733-1.566,1.296-2.558,1.688s-2.106,0.588-3.346,0.588c-1.229,0-2.334-0.199-3.315-0.595
		c-0.981-0.396-1.831-0.964-2.55-1.703c-0.719-0.738-1.264-1.61-1.636-2.616s-0.558-2.119-0.558-3.338
		c0-1.229,0.188-2.354,0.565-3.375c0.376-1.021,0.916-1.894,1.62-2.617s1.557-1.281,2.558-1.673s2.106-0.587,3.315-0.587
		c1.229,0,2.344,0.198,3.346,0.595c1.001,0.396,1.858,0.961,2.572,1.694c0.714,0.734,1.256,1.606,1.628,2.617
		S337.291,73.069,337.291,74.289z M333.217,74.289c0-1.655-0.364-2.944-1.093-3.866s-1.707-1.383-2.937-1.383
		c-0.793,0-1.492,0.206-2.097,0.617s-1.07,1.019-1.397,1.821s-0.49,1.739-0.49,2.811c0,1.061,0.161,1.987,0.483,2.78
		c0.321,0.793,0.782,1.4,1.383,1.821c0.6,0.421,1.306,0.632,2.118,0.632c1.229,0,2.208-0.463,2.937-1.391
		C332.853,77.205,333.217,75.924,333.217,74.289z"/>
	<path fill="#545454" d="M351.61,80.222v-0.402c-0.545,0.625-1.083,1.133-1.613,1.524s-1.105,0.689-1.725,0.893
		c-0.619,0.202-1.296,0.305-2.029,0.305c-0.972,0-1.871-0.206-2.698-0.617c-0.828-0.411-1.545-0.999-2.149-1.762
		c-0.604-0.764-1.063-1.66-1.375-2.691s-0.468-2.146-0.468-3.346c0-2.537,0.619-4.515,1.858-5.933
		c1.238-1.417,2.869-2.126,4.892-2.126c1.169,0,2.155,0.201,2.959,0.603c0.803,0.401,1.585,1.019,2.349,1.851v-5.992
		c0-0.833,0.166-1.462,0.498-1.888S352.913,60,353.528,60s1.088,0.196,1.42,0.587c0.332,0.392,0.498,0.969,0.498,1.732v17.902
		c0,0.772-0.178,1.353-0.535,1.739c-0.356,0.387-0.817,0.58-1.383,0.58c-0.555,0-1.014-0.201-1.375-0.603
		C351.79,81.537,351.61,80.965,351.61,80.222z M343.625,74.259c0,1.101,0.171,2.037,0.514,2.811c0.342,0.772,0.81,1.355,1.404,1.747
		s1.244,0.587,1.948,0.587c0.714,0,1.365-0.186,1.955-0.558c0.59-0.371,1.061-0.941,1.412-1.71c0.352-0.768,0.528-1.727,0.528-2.877
		c0-1.08-0.177-2.01-0.528-2.787c-0.352-0.778-0.827-1.373-1.427-1.785c-0.601-0.411-1.257-0.616-1.971-0.616
		c-0.743,0-1.407,0.21-1.992,0.632c-0.585,0.421-1.038,1.025-1.36,1.813S343.625,73.218,343.625,74.259z"/>
</g>
<text transform="matrix(1 0 0 1 361.6311 82.1689)" fill="#E52C65" font-family="'ArialRoundedMTBold'" font-size="30.4503">.</text>
<g enable-background="new    ">
	<path fill="#B4B4B4" d="M180.258,97.154h4.16v0.902h-5.314v-8.531h1.154V97.154z"/>
	<path fill="#B4B4B4" d="M189.44,98.057c-0.039-0.191-0.069-0.36-0.091-0.507s-0.034-0.294-0.038-0.442
		c-0.215,0.305-0.495,0.56-0.841,0.765s-0.718,0.308-1.116,0.308c-0.66,0-1.163-0.169-1.509-0.507s-0.519-0.804-0.519-1.397
		c0-0.605,0.245-1.079,0.735-1.421s1.155-0.513,1.995-0.513h1.254v-0.627c0-0.371-0.113-0.665-0.34-0.882s-0.547-0.325-0.961-0.325
		c-0.375,0-0.678,0.094-0.908,0.281s-0.346,0.412-0.346,0.674l-1.096,0.012l-0.012-0.035c-0.027-0.461,0.188-0.883,0.647-1.266
		s1.052-0.574,1.778-0.574c0.719,0,1.297,0.183,1.734,0.548s0.656,0.892,0.656,1.579v3.053c0,0.227,0.012,0.445,0.035,0.656
		s0.066,0.418,0.129,0.621H189.44z M187.524,97.213c0.418,0,0.795-0.107,1.131-0.322s0.555-0.461,0.656-0.738v-1.031h-1.295
		c-0.465,0-0.837,0.117-1.116,0.352s-0.419,0.51-0.419,0.826c0,0.281,0.088,0.504,0.264,0.668S187.18,97.213,187.524,97.213z"/>
	<path fill="#B4B4B4" d="M194.918,95.004c0-1.02,0.218-1.842,0.653-2.467s1.044-0.938,1.825-0.938c0.402,0,0.756,0.081,1.061,0.243
		s0.561,0.396,0.768,0.7l0.141-0.826h0.92v6.375c0,0.813-0.236,1.437-0.709,1.872s-1.154,0.653-2.045,0.653
		c-0.305,0-0.634-0.042-0.987-0.126s-0.665-0.198-0.935-0.343l0.176-0.896c0.223,0.117,0.491,0.212,0.806,0.284
		s0.624,0.108,0.929,0.108c0.563,0,0.972-0.128,1.228-0.384s0.384-0.646,0.384-1.169v-0.721c-0.207,0.266-0.455,0.467-0.744,0.604
		s-0.623,0.205-1.002,0.205c-0.773,0-1.378-0.28-1.813-0.841s-0.653-1.298-0.653-2.212V95.004z M196.073,95.127
		c0,0.637,0.131,1.148,0.393,1.535s0.666,0.58,1.213,0.58c0.348,0,0.639-0.079,0.873-0.237s0.428-0.382,0.58-0.671v-2.918
		c-0.148-0.27-0.342-0.483-0.58-0.642s-0.525-0.237-0.861-0.237c-0.551,0-0.958,0.229-1.222,0.686s-0.396,1.051-0.396,1.781V95.127z
		"/>
	<path fill="#B4B4B4" d="M205.84,98.057c-0.039-0.191-0.069-0.36-0.091-0.507s-0.034-0.294-0.038-0.442
		c-0.215,0.305-0.495,0.56-0.841,0.765s-0.718,0.308-1.116,0.308c-0.66,0-1.163-0.169-1.509-0.507s-0.519-0.804-0.519-1.397
		c0-0.605,0.245-1.079,0.735-1.421s1.155-0.513,1.995-0.513h1.254v-0.627c0-0.371-0.113-0.665-0.34-0.882s-0.547-0.325-0.961-0.325
		c-0.375,0-0.678,0.094-0.908,0.281s-0.346,0.412-0.346,0.674l-1.096,0.012l-0.012-0.035c-0.027-0.461,0.188-0.883,0.647-1.266
		s1.052-0.574,1.778-0.574c0.719,0,1.297,0.183,1.734,0.548s0.656,0.892,0.656,1.579v3.053c0,0.227,0.012,0.445,0.035,0.656
		s0.066,0.418,0.129,0.621H205.84z M203.924,97.213c0.418,0,0.795-0.107,1.131-0.322s0.555-0.461,0.656-0.738v-1.031h-1.295
		c-0.465,0-0.837,0.117-1.116,0.352s-0.419,0.51-0.419,0.826c0,0.281,0.088,0.504,0.264,0.668S203.58,97.213,203.924,97.213z"/>
	<path fill="#B4B4B4" d="M212.227,96.352c0-0.254-0.097-0.461-0.29-0.621s-0.56-0.301-1.099-0.422
		c-0.746-0.16-1.319-0.385-1.72-0.674s-0.601-0.676-0.601-1.16c0-0.516,0.22-0.957,0.659-1.324s1.009-0.551,1.708-0.551
		c0.719,0,1.301,0.195,1.746,0.586s0.658,0.846,0.639,1.365l-0.012,0.035h-1.102c0-0.273-0.12-0.521-0.36-0.744
		s-0.544-0.334-0.911-0.334c-0.406,0-0.71,0.092-0.911,0.275s-0.302,0.402-0.302,0.656c0,0.25,0.087,0.443,0.261,0.58
		s0.532,0.262,1.075,0.375c0.777,0.164,1.367,0.396,1.77,0.697s0.604,0.693,0.604,1.178c0,0.563-0.228,1.021-0.683,1.377
		s-1.05,0.533-1.784,0.533c-0.809,0-1.445-0.205-1.91-0.615s-0.686-0.889-0.662-1.436l0.012-0.035h1.102
		c0.02,0.41,0.172,0.71,0.457,0.899s0.619,0.284,1.002,0.284c0.41,0,0.731-0.087,0.964-0.261S212.227,96.621,212.227,96.352z"/>
	<path fill="#B4B4B4" d="M216.422,90.188v1.529h1.201v0.855h-1.201v3.85c0,0.297,0.062,0.506,0.185,0.627s0.286,0.182,0.489,0.182
		c0.066,0,0.141-0.009,0.223-0.026s0.15-0.036,0.205-0.056l0.158,0.791c-0.086,0.07-0.213,0.128-0.381,0.173
		s-0.334,0.067-0.498,0.067c-0.469,0-0.842-0.142-1.119-0.425s-0.416-0.728-0.416-1.333v-3.85h-1.008v-0.855h1.008v-1.529H216.422z"
		/>
</g>
<g enable-background="new    ">
	<path fill="#B4B4B4" d="M221.86,92.736l-0.592-0.035c-0.305,0-0.562,0.072-0.771,0.217s-0.37,0.348-0.483,0.609v4.529h-1.154v-6.34
		h1.031l0.111,0.926c0.18-0.328,0.401-0.584,0.665-0.768s0.567-0.275,0.911-0.275c0.086,0,0.168,0.007,0.246,0.021
		s0.143,0.028,0.193,0.044L221.86,92.736z"/>
</g>
<g enable-background="new    ">
	<path fill="#B4B4B4" d="M222.683,94.828c0-0.938,0.254-1.71,0.762-2.317s1.197-0.911,2.068-0.911c0.879,0,1.573,0.303,2.083,0.908
		s0.765,1.379,0.765,2.32v0.129c0,0.945-0.254,1.719-0.762,2.32s-1.199,0.902-2.074,0.902s-1.567-0.302-2.077-0.905
		s-0.765-1.376-0.765-2.317V94.828z M223.837,94.957c0,0.672,0.142,1.227,0.425,1.664s0.704,0.656,1.263,0.656
		c0.551,0,0.969-0.219,1.254-0.656s0.428-0.992,0.428-1.664v-0.129c0-0.664-0.144-1.217-0.431-1.658s-0.708-0.662-1.263-0.662
		c-0.551,0-0.968,0.221-1.251,0.662s-0.425,0.994-0.425,1.658V94.957z"/>
	<path fill="#B4B4B4" d="M230.804,91.717l0.082,0.943c0.211-0.336,0.476-0.597,0.794-0.782s0.681-0.278,1.087-0.278
		c0.684,0,1.213,0.2,1.588,0.601s0.563,1.019,0.563,1.854v4.002h-1.154v-3.979c0-0.559-0.11-0.955-0.331-1.189
		s-0.558-0.352-1.011-0.352c-0.355,0-0.657,0.071-0.905,0.214s-0.444,0.343-0.589,0.601v4.705h-1.154v-6.34H230.804z"/>
	<path fill="#B4B4B4" d="M236.323,94.828c0-0.938,0.254-1.71,0.762-2.317s1.197-0.911,2.068-0.911c0.879,0,1.573,0.303,2.083,0.908
		s0.765,1.379,0.765,2.32v0.129c0,0.945-0.254,1.719-0.762,2.32s-1.199,0.902-2.074,0.902s-1.567-0.302-2.077-0.905
		s-0.765-1.376-0.765-2.317V94.828z M237.478,94.957c0,0.672,0.142,1.227,0.425,1.664s0.704,0.656,1.263,0.656
		c0.551,0,0.969-0.219,1.254-0.656s0.428-0.992,0.428-1.664v-0.129c0-0.664-0.144-1.217-0.431-1.658s-0.708-0.662-1.263-0.662
		c-0.551,0-0.968,0.221-1.251,0.662s-0.425,0.994-0.425,1.658V94.957z"/>
	<path fill="#B4B4B4" d="M244.445,91.717l0.082,0.832c0.207-0.301,0.47-0.534,0.788-0.7s0.688-0.249,1.11-0.249
		s0.784,0.098,1.087,0.293s0.53,0.488,0.683,0.879c0.203-0.363,0.468-0.649,0.794-0.858s0.708-0.313,1.146-0.313
		c0.645,0,1.154,0.222,1.529,0.665s0.563,1.11,0.563,2.001v3.791h-1.154v-3.803c0-0.625-0.107-1.067-0.322-1.327
		s-0.535-0.39-0.961-0.39c-0.395,0-0.714,0.137-0.958,0.41s-0.388,0.619-0.431,1.037v0.047v4.025h-1.16v-3.803
		c0-0.594-0.11-1.028-0.331-1.304s-0.538-0.413-0.952-0.413c-0.352,0-0.641,0.072-0.867,0.217s-0.4,0.348-0.521,0.609v4.693h-1.154
		v-6.34H244.445z"/>
	<path fill="#B4B4B4" d="M255.15,90.094h-1.154v-1.178h1.154V90.094z M255.15,98.057h-1.154v-6.34h1.154V98.057z"/>
	<path fill="#B4B4B4" d="M259.55,98.18c-0.91,0-1.62-0.291-2.13-0.873s-0.765-1.348-0.765-2.297v-0.258
		c0-0.91,0.263-1.663,0.788-2.259s1.167-0.894,1.925-0.894c0.848,0,1.483,0.264,1.907,0.791s0.636,1.229,0.636,2.104v0.609h-4.055
		l-0.018,0.029c0,0.637,0.141,1.153,0.422,1.55s0.711,0.595,1.289,0.595c0.391,0,0.733-0.056,1.028-0.167s0.548-0.265,0.759-0.46
		l0.451,0.75c-0.227,0.219-0.525,0.403-0.896,0.554S260.073,98.18,259.55,98.18z M259.368,92.508c-0.402,0-0.735,0.155-0.999,0.466
		s-0.425,0.708-0.483,1.192l0.012,0.029h2.859v-0.094c0-0.461-0.113-0.842-0.34-1.143S259.841,92.508,259.368,92.508z"/>
	<path fill="#B4B4B4" d="M270.085,98.057c-0.039-0.191-0.069-0.36-0.091-0.507s-0.034-0.294-0.038-0.442
		c-0.215,0.305-0.495,0.56-0.841,0.765s-0.718,0.308-1.116,0.308c-0.66,0-1.163-0.169-1.509-0.507s-0.519-0.804-0.519-1.397
		c0-0.605,0.245-1.079,0.735-1.421s1.155-0.513,1.995-0.513h1.254v-0.627c0-0.371-0.113-0.665-0.34-0.882s-0.547-0.325-0.961-0.325
		c-0.375,0-0.678,0.094-0.908,0.281s-0.346,0.412-0.346,0.674l-1.096,0.012l-0.012-0.035c-0.027-0.461,0.188-0.883,0.647-1.266
		s1.052-0.574,1.778-0.574c0.719,0,1.297,0.183,1.734,0.548s0.656,0.892,0.656,1.579v3.053c0,0.227,0.012,0.445,0.035,0.656
		s0.066,0.418,0.129,0.621H270.085z M269.089,90.563h-0.926l-1.465-1.523l0.018-0.035h1.348L269.089,90.563z M268.169,97.213
		c0.418,0,0.795-0.107,1.131-0.322s0.555-0.461,0.656-0.738v-1.031h-1.295c-0.465,0-0.837,0.117-1.116,0.352
		s-0.419,0.51-0.419,0.826c0,0.281,0.088,0.504,0.264,0.668S267.825,97.213,268.169,97.213z"/>
	<path fill="#B4B4B4" d="M281.171,95.127c0,0.914-0.219,1.651-0.656,2.212s-1.041,0.841-1.811,0.841
		c-0.391,0-0.733-0.065-1.028-0.196s-0.546-0.327-0.753-0.589v3.1h-1.154v-8.777h0.885l0.182,0.82
		c0.207-0.305,0.465-0.537,0.773-0.697s0.668-0.24,1.078-0.24c0.785,0,1.396,0.312,1.831,0.935s0.653,1.446,0.653,2.47V95.127z
		 M280.017,95.004c0-0.719-0.142-1.31-0.425-1.772s-0.7-0.694-1.251-0.694c-0.332,0-0.615,0.075-0.85,0.226
		s-0.424,0.356-0.568,0.618v3.064c0.145,0.262,0.334,0.466,0.568,0.612s0.521,0.22,0.861,0.22c0.547,0,0.961-0.2,1.242-0.601
		s0.422-0.917,0.422-1.55V95.004z"/>
	<path fill="#B4B4B4" d="M282.32,94.828c0-0.938,0.254-1.71,0.762-2.317s1.197-0.911,2.068-0.911c0.879,0,1.573,0.303,2.083,0.908
		s0.765,1.379,0.765,2.32v0.129c0,0.945-0.254,1.719-0.762,2.32s-1.199,0.902-2.074,0.902s-1.567-0.302-2.077-0.905
		s-0.765-1.376-0.765-2.317V94.828z M283.474,94.957c0,0.672,0.142,1.227,0.425,1.664s0.704,0.656,1.263,0.656
		c0.551,0,0.969-0.219,1.254-0.656s0.428-0.992,0.428-1.664v-0.129c0-0.664-0.144-1.217-0.431-1.658s-0.708-0.662-1.263-0.662
		c-0.551,0-0.968,0.221-1.251,0.662s-0.425,0.994-0.425,1.658V94.957z"/>
</g>
<g enable-background="new    ">
	<path fill="#B4B4B4" d="M292.409,92.736l-0.592-0.035c-0.305,0-0.562,0.072-0.771,0.217s-0.37,0.348-0.483,0.609v4.529h-1.154
		v-6.34h1.031l0.111,0.926c0.18-0.328,0.401-0.584,0.665-0.768s0.567-0.275,0.911-0.275c0.086,0,0.168,0.007,0.246,0.021
		s0.143,0.028,0.193,0.044L292.409,92.736z"/>
</g>
<g enable-background="new    ">
	<path fill="#B4B4B4" d="M295.312,90.188v1.529h1.201v0.855h-1.201v3.85c0,0.297,0.062,0.506,0.185,0.627s0.286,0.182,0.489,0.182
		c0.066,0,0.141-0.009,0.223-0.026s0.15-0.036,0.205-0.056l0.158,0.791c-0.086,0.07-0.213,0.128-0.381,0.173
		s-0.334,0.067-0.498,0.067c-0.469,0-0.842-0.142-1.119-0.425s-0.416-0.728-0.416-1.333v-3.85h-1.008v-0.855h1.008v-1.529H295.312z"
		/>
	<path fill="#B4B4B4" d="M300.374,98.18c-0.91,0-1.62-0.291-2.13-0.873s-0.765-1.348-0.765-2.297v-0.258
		c0-0.91,0.263-1.663,0.788-2.259s1.167-0.894,1.925-0.894c0.848,0,1.483,0.264,1.907,0.791s0.636,1.229,0.636,2.104v0.609h-4.055
		l-0.018,0.029c0,0.637,0.141,1.153,0.422,1.55s0.711,0.595,1.289,0.595c0.391,0,0.733-0.056,1.028-0.167s0.548-0.265,0.759-0.46
		l0.451,0.75c-0.227,0.219-0.525,0.403-0.896,0.554S300.898,98.18,300.374,98.18z M300.193,92.508c-0.402,0-0.735,0.155-0.999,0.466
		s-0.425,0.708-0.483,1.192l0.012,0.029h2.859v-0.094c0-0.461-0.113-0.842-0.34-1.143S300.665,92.508,300.193,92.508z
		 M300.626,89.021h1.348l0.012,0.035l-1.576,1.523h-0.867L300.626,89.021z"/>
	<path fill="#B4B4B4" d="M306.656,98.18c-0.91,0-1.62-0.291-2.13-0.873s-0.765-1.348-0.765-2.297v-0.258
		c0-0.91,0.263-1.663,0.788-2.259s1.167-0.894,1.925-0.894c0.848,0,1.483,0.264,1.907,0.791s0.636,1.229,0.636,2.104v0.609h-4.055
		l-0.018,0.029c0,0.637,0.141,1.153,0.422,1.55s0.711,0.595,1.289,0.595c0.391,0,0.733-0.056,1.028-0.167s0.548-0.265,0.759-0.46
		l0.451,0.75c-0.227,0.219-0.525,0.403-0.896,0.554S307.179,98.18,306.656,98.18z M306.474,92.508c-0.402,0-0.735,0.155-0.999,0.466
		s-0.425,0.708-0.483,1.192l0.012,0.029h2.859v-0.094c0-0.461-0.113-0.842-0.34-1.143S306.947,92.508,306.474,92.508z"/>
	<path fill="#B4B4B4" d="M313.031,95.004c0-1.02,0.218-1.842,0.653-2.467s1.046-0.938,1.831-0.938c0.371,0,0.7,0.068,0.987,0.205
		s0.532,0.336,0.735,0.598v-3.486h1.154v9.141h-0.885l-0.176-0.803c-0.207,0.305-0.463,0.535-0.768,0.691s-0.658,0.234-1.061,0.234
		c-0.773,0-1.379-0.28-1.816-0.841s-0.656-1.298-0.656-2.212V95.004z M314.185,95.127c0,0.641,0.131,1.153,0.393,1.538
		s0.668,0.577,1.219,0.577c0.344,0,0.633-0.078,0.867-0.234s0.426-0.375,0.574-0.656v-2.959c-0.148-0.262-0.341-0.47-0.577-0.624
		s-0.521-0.231-0.853-0.231c-0.555,0-0.964,0.229-1.228,0.686s-0.396,1.051-0.396,1.781V95.127z"/>
	<path fill="#B4B4B4" d="M322.74,98.18c-0.91,0-1.62-0.291-2.13-0.873s-0.765-1.348-0.765-2.297v-0.258
		c0-0.91,0.263-1.663,0.788-2.259s1.167-0.894,1.925-0.894c0.848,0,1.483,0.264,1.907,0.791s0.636,1.229,0.636,2.104v0.609h-4.055
		l-0.018,0.029c0,0.637,0.141,1.153,0.422,1.55s0.711,0.595,1.289,0.595c0.391,0,0.733-0.056,1.028-0.167s0.548-0.265,0.759-0.46
		l0.451,0.75c-0.227,0.219-0.525,0.403-0.896,0.554S323.263,98.18,322.74,98.18z M322.558,92.508c-0.402,0-0.735,0.155-0.999,0.466
		s-0.425,0.708-0.483,1.192l0.012,0.029h2.859v-0.094c0-0.461-0.113-0.842-0.34-1.143S323.031,92.508,322.558,92.508z"/>
	<path fill="#B4B4B4" d="M330.409,91.717l0.082,0.832c0.207-0.301,0.47-0.534,0.788-0.7s0.688-0.249,1.11-0.249
		s0.784,0.098,1.087,0.293s0.53,0.488,0.683,0.879c0.203-0.363,0.468-0.649,0.794-0.858s0.708-0.313,1.146-0.313
		c0.645,0,1.154,0.222,1.529,0.665s0.563,1.11,0.563,2.001v3.791h-1.154v-3.803c0-0.625-0.107-1.067-0.322-1.327
		s-0.535-0.39-0.961-0.39c-0.395,0-0.714,0.137-0.958,0.41s-0.388,0.619-0.431,1.037v0.047v4.025h-1.16v-3.803
		c0-0.594-0.11-1.028-0.331-1.304s-0.538-0.413-0.952-0.413c-0.352,0-0.641,0.072-0.867,0.217s-0.4,0.348-0.521,0.609v4.693h-1.154
		v-6.34H330.409z"/>
	<path fill="#B4B4B4" d="M343.763,98.057c-0.039-0.191-0.069-0.36-0.091-0.507s-0.034-0.294-0.038-0.442
		c-0.215,0.305-0.495,0.56-0.841,0.765s-0.718,0.308-1.116,0.308c-0.66,0-1.163-0.169-1.509-0.507s-0.519-0.804-0.519-1.397
		c0-0.605,0.245-1.079,0.735-1.421s1.155-0.513,1.995-0.513h1.254v-0.627c0-0.371-0.113-0.665-0.34-0.882s-0.547-0.325-0.961-0.325
		c-0.375,0-0.678,0.094-0.908,0.281s-0.346,0.412-0.346,0.674l-1.096,0.012l-0.012-0.035c-0.027-0.461,0.188-0.883,0.647-1.266
		s1.052-0.574,1.778-0.574c0.719,0,1.297,0.183,1.734,0.548s0.656,0.892,0.656,1.579v3.053c0,0.227,0.012,0.445,0.035,0.656
		s0.066,0.418,0.129,0.621H343.763z M341.847,97.213c0.418,0,0.795-0.107,1.131-0.322s0.555-0.461,0.656-0.738v-1.031h-1.295
		c-0.465,0-0.837,0.117-1.116,0.352s-0.419,0.51-0.419,0.826c0,0.281,0.088,0.504,0.264,0.668S341.503,97.213,341.847,97.213z"/>
	<path fill="#B4B4B4" d="M347.712,90.094h-1.154v-1.178h1.154V90.094z M347.712,98.057h-1.154v-6.34h1.154V98.057z"/>
	<path fill="#B4B4B4" d="M350.519,91.717l0.082,0.943c0.211-0.336,0.476-0.597,0.794-0.782s0.681-0.278,1.087-0.278
		c0.684,0,1.213,0.2,1.588,0.601s0.563,1.019,0.563,1.854v4.002h-1.154v-3.979c0-0.559-0.11-0.955-0.331-1.189
		s-0.558-0.352-1.011-0.352c-0.355,0-0.657,0.071-0.905,0.214s-0.444,0.343-0.589,0.601v4.705h-1.154v-6.34H350.519z"/>
</g>
</svg>
