<?xml version="1.0" encoding="utf-8"?>
<!-- Generator: Adobe Illustrator 21.0.2, SVG Export Plug-In . SVG Version: 6.00 Build 0)  -->
<svg version="1.1" id="Calque_1" xmlns="http://www.w3.org/2000/svg" xmlns:xlink="http://www.w3.org/1999/xlink" x="0px" y="0px"
	 viewBox="0 0 60 60" style="enable-background:new 0 0 60 60;" xml:space="preserve">
<style type="text/css">
	.st0{fill:#F32063;}
</style>
<path class="st0" d="M42.6,32.2c-0.6-0.4-1.4-0.1-1.7,0.5l-0.5,0.9c-0.1-0.1-0.3-0.3-0.4-0.4c-0.3-0.2-0.7-0.4-1.1-0.4
	c0.7-1.1,1.2-2.2,1.6-3.2l2.6-4.7c0.3-0.6,0.1-1.4-0.5-1.7c-0.6-0.3-1.4-0.1-1.7,0.5l-0.5,1c-0.1-0.1-0.2-0.2-0.4-0.3
	c-0.3-0.2-0.7-0.4-1.1-0.4c0.7-1.1,1.3-2.1,1.7-3.2l2.6-5.1c0.3-0.6,0.1-1.4-0.5-1.7c-0.6-0.3-1.4-0.1-1.7,0.5l-0.6,1.2
	c-0.1-0.1-0.2-0.2-0.3-0.2c-0.4-0.3-0.9-0.4-1.4-0.4c-1.4,0-2.9,1-4.2,2.2c0.1-2-0.2-3.9-0.7-5.4C33.2,10.5,32,9.7,32,9.3V4.2
	c0-0.7-0.8-1.3-1.5-1.3S29,3.5,29,4.2V9c-2,1-2.8,4.6-2.9,7.9c0,0.2,0.1,0.3,0.1,0.5c-1.4-1.4-3-2.5-4.4-2.5c-0.5,0-1,0.1-1.4,0.4
	c-0.2,0.1-0.3,0.2-0.4,0.4l-0.9-1.4c-0.4-0.6-1.2-0.8-1.7-0.4c-0.6,0.4-0.8,1.2-0.4,1.8l2.8,4.5c0.4,1.2,1,2.5,1.8,3.7
	c-0.4,0-0.8,0.2-1.1,0.4c-0.1,0.1-0.2,0.1-0.3,0.3l-1-1.7c-0.4-0.6-1.1-0.8-1.7-0.5c-0.6,0.4-0.8,1.1-0.5,1.7l2.7,4.6
	c0.4,1.2,1,2.6,1.9,4c-0.4,0-0.8,0.2-1.1,0.4c-0.1,0.1-0.2,0.1-0.3,0.2l-1-1.9c-0.3-0.6-1.1-0.9-1.7-0.5c-0.6,0.3-0.9,1.1-0.5,1.7
	l3,5.7c0.5,1.3,1.2,2.6,2.1,3.8c1.6,2.3,4.2,5,6.5,5c0.2,0-0.5,0,0.5-0.1v7.7c0,0.7,0.3,1.3,1,1.3s1-0.6,1-1.3v-7.6
	c0,0,0.7-0.2,0.7-0.2h0.1c2.3,0,5-2.6,6.6-4.9c0.8-1.2,1.6-2.5,2.1-3.8l2.6-4.5C43.4,33.3,43.2,32.5,42.6,32.2z M30.2,40.7
	c-0.4-0.8-0.8-1.6-1.3-2.4c0.4,0,0.8-0.2,1.1-0.4c0.1,0,0.1-0.1,0.2-0.1c0.1,0.1,0.1,0.1,0.2,0.1c0.3,0.2,0.7,0.4,1.1,0.4
	C31,39.1,30.5,39.9,30.2,40.7z M30,29c0.1-0.1,0.2-0.1,0.2-0.2c0,0,0.1,0.1,0.1,0.1c0.3,0.2,0.7,0.3,1.2,0.4c-0.5,0.8-1,1.7-1.4,2.5
	c-0.3-0.8-0.8-1.6-1.3-2.4C29.3,29.4,29.7,29.3,30,29z M36.3,31.9c-1.8,2.6-3.7,3.9-4.5,3.9c-0.2-0.6,0.2-2.7,2.2-5.5
	c1.8-2.6,3.7-3.9,4.5-3.9C38.6,26.9,38.3,29.1,36.3,31.9z M26.4,30.3c2,2.8,2.3,5,2.2,5.5c-0.7,0-2.6-1.3-4.5-3.9
	c-2-2.8-2.3-5-2.2-5.5C22.6,26.4,24.5,27.6,26.4,30.3z M38.5,17.5c0.2,0.6-0.2,2.7-2.2,5.5c-1.8,2.6-3.7,3.9-4.5,3.9
	c-0.1-0.4,0-1.5,0.7-3c0.2-0.4,0.5-0.8,0.6-1.2c0.2-0.4,0.5-0.8,0.8-1.3C35.8,18.8,37.7,17.5,38.5,17.5z M28.9,17
	c0.2-3.4,1.2-5.4,1.7-5.7c0.4,0.4,1.3,2.4,1.2,5.8c-0.1,1.9-0.5,3.4-0.8,4.4c-0.2,0.3-0.4,0.7-0.5,1c-0.1,0.1-0.2,0.2-0.2,0.3
	c-0.2-0.5-0.5-1.1-0.8-1.6C29,20.3,28.8,18.8,28.9,17z M21.9,17.5c0.7,0,2.6,1.3,4.5,3.9c0.2,0.3,0.4,0.6,0.6,0.8
	c0.3,0.9,0.7,1.7,1.1,2.3c0.5,1.2,0.6,2.1,0.5,2.4c-0.7,0-2.6-1.3-4.5-3.9C22.1,20.2,21.7,18,21.9,17.5z M28.5,44.7
	c-0.7,0-2.6-1.3-4.5-3.9c-2-2.8-2.3-5-2.2-5.5c0.7,0,2.6,1.3,4.5,3.9C28.3,41.9,28.7,44.1,28.5,44.7z M31.8,44.7
	c-0.2-0.6,0.2-2.7,2.2-5.5c1.8-2.6,3.7-3.9,4.5-3.9c0.2,0.6-0.2,2.7-2.2,5.5C34.5,43.4,32.6,44.6,31.8,44.7z"/>
</svg>
