<?xml version="1.0" encoding="utf-8"?>
<!-- Generator: Adobe Illustrator 21.0.2, SVG Export Plug-In . SVG Version: 6.00 Build 0)  -->
<svg version="1.1" id="Calque_1" xmlns="http://www.w3.org/2000/svg" xmlns:xlink="http://www.w3.org/1999/xlink" x="0px" y="0px"
	 viewBox="0 0 60 60" style="enable-background:new 0 0 60 60;" xml:space="preserve">
<style type="text/css">
	.st0{fill:#F32063;}
</style>
<path class="st0" d="M49.9,24.8L41,7.6v-3C41,3.8,40.6,3,39.8,3H21.4C20.6,3,20,3.8,20,4.6v2.6c0,0,0,0-0.1,0.1l-9,16.4
	c-0.2,0.4-0.1,0.8,0,1.2c0,0.2,0,0.4,0,0.6v28.9c0,1.4,0.8,2.7,2.2,2.7h34.2c1.3,0,2.6-1.3,2.6-2.7v-28C50,25.9,50.1,25.3,49.9,24.8
	z M40,11.9L45.5,23h-9.7L40,11.9z M23,6h15v1H23V6z M21.9,10h15.6l-4.9,13H14.8L21.9,10z M14,26h18v28H14V26z M47,54H35V26h12V54z"
	/>
</svg>
