<?xml version="1.0" encoding="utf-8"?>
<!-- Generator: Adobe Illustrator 21.0.2, SVG Export Plug-In . SVG Version: 6.00 Build 0)  -->
<svg version="1.1" id="Calque_1" xmlns="http://www.w3.org/2000/svg" xmlns:xlink="http://www.w3.org/1999/xlink" x="0px" y="0px"
	 viewBox="0 0 30 30" style="enable-background:new 0 0 30 30;" xml:space="preserve">
<style type="text/css">
	.st0{fill:#F32063;}
</style>
<path class="st0" d="M27,16h-0.7c0.1,0,0.1-0.6,0.1-0.9c0-1.4-1.1-4.8-2.9-4.8s-2.9,3.4-2.9,4.8c0,0.3,0,0.9,0.1,0.9h-3
	c0.1,0,0.1-0.6,0.1-0.9c0-1.4-1.1-4.8-2.9-4.8s-2.9,3.4-2.9,4.8c0,0.3,0,0.9,0.1,0.9H9.8c0.1,0,0.1-0.6,0.1-0.9
	c0-1.4-1.1-4.8-2.9-4.8s-2.9,3.4-2.9,4.8c0,0.3,0,0.9,0.1,0.9H3c-0.7,0-1,0.5-1,1.1v2.7C2,20.3,2.3,21,3,21H27c0.7,0,1-0.7,1-1.3
	v-2.7C28,16.5,27.7,16,27,16z M23.6,11.5c0.7,0,1.7,2.3,1.7,3.6c0,1-0.8,1.7-1.7,1.7c-0.9,0-1.7-0.8-1.7-1.7
	C21.9,13.9,22.9,11.5,23.6,11.5z M15.1,11.5c0.7,0,1.7,2.3,1.7,3.6c0,1-0.8,1.7-1.7,1.7s-1.7-0.8-1.7-1.7
	C13.4,13.9,14.4,11.5,15.1,11.5z M7,11.5c0.7,0,1.7,2.3,1.7,3.6c0,0.4-0.1,0.7-0.3,1c-0.1,0.1-0.2,0.2-0.3,0.3
	c-0.3,0.3-0.7,0.5-1.1,0.5c-0.9,0-1.7-0.8-1.7-1.7C5.3,13.9,6.3,11.5,7,11.5z M27,19.7c0,0,0,0.3,0,0.3H3c0,0,0-0.2,0-0.3V17h2
	c0.5,1,1.2,0.8,2,0.8S8.5,18,9,17H13c0,0,0.1,0.1,0.1,0.1c0.5,0.5,1.2,0.8,2,0.8c0.8,0,1.5,0.1,2-0.9h4.4c0.5,1,1.2,0.8,2,0.8
	s1.5,0.2,2-0.8H27V19.7z"/>
</svg>
