<?xml version="1.0" encoding="utf-8"?>
<!-- Generator: Adobe Illustrator 21.0.2, SVG Export Plug-In . SVG Version: 6.00 Build 0)  -->
<svg version="1.1" id="Calque_1" xmlns="http://www.w3.org/2000/svg" xmlns:xlink="http://www.w3.org/1999/xlink" x="0px" y="0px"
	 viewBox="0 0 60 60" style="enable-background:new 0 0 60 60;" xml:space="preserve">
<style type="text/css">
	.st0{fill:#F32063;}
</style>
<g>
	<path class="st0" d="M56,14.8c-0.5-0.6-1.2-0.9-2.2-1c0.3-0.6,0.4-1.3,0.2-1.9c-0.2-0.5-0.6-1.3-1.9-1.5c-2.5-0.4-4.9-0.6-7.3-0.6
		c-6.5,0-12,1.5-16.4,4.4C19,20.5,16,32.7,15.2,37.1c-2.9-1-6.2-2.6-9.3-5.3c-0.6-0.5-1.5-0.4-2,0.1s-0.5,1.5,0.1,2
		c3.5,3.1,7.3,4.9,10.6,6c-0.8,4.4-1.2,9.2,0,12c0.2,0.5,0.7,0.9,1.3,0.9c0.2,0,0.4,0,0.5-0.1c0.7-0.3,1.1-1.1,0.7-1.8
		c-0.9-2.1-0.6-5.9,0.2-9.9c3.4,0.8,5.9,1.1,6.1,1.1c0,0,0,0,0,0c0.2,0,0.3-0.2,0.4-0.3c1.1,0.1,2.2,0,3.4,0c6.5,0,12-1.5,16.4-4.4
		c7.9-5.3,11.3-15.1,12.6-20.4C56.6,15.9,56.3,15.2,56,14.8z M18,37.9c0.6-2.8,1.3-5.3,1.8-6.9c1-2.9,2.5-6.2,4.7-9.1
		c2.4,2.1,8.2,7.8,10.8,16.2c-2.4,0.6-5.1,0.9-7.9,0.9C23.3,38.9,19.8,38.2,18,37.9z M42.2,35c-1.3,0.8-2.7,1.6-4.2,2.1
		C35.2,28,29,21.9,26.3,19.6c1.1-1.1,2.3-2.2,3.6-3.1c3.9-2.6,8.8-3.9,14.8-3.9c2,0,4.2,0.2,6.3,0.5c-0.3,0.5-0.8,1.1-1.3,1.7
		c-0.5,0.5-0.5,1.2-0.2,1.7c0.3,0.5,1,0.8,1.6,0.6c0.4-0.1,1.5-0.4,2.3-0.4C52.2,21.7,49.1,30.4,42.2,35z"/>
	<path class="st0" d="M44.2,16.6l-0.3,0.2c-0.6,0.4-0.8,1.3-0.4,2c0.3,0.4,0.7,0.6,1.2,0.6c0.3,0,0.5-0.1,0.8-0.2l0.3-0.2
		c0.6-0.4,0.8-1.3,0.4-2C45.7,16.3,44.8,16.1,44.2,16.6z"/>
</g>
</svg>
