<?xml version="1.0" encoding="iso-8859-1"?>
<!-- Generator: Adobe Illustrator 19.0.0, SVG Export Plug-In . SVG Version: 6.00 Build 0)  -->
<svg xmlns="http://www.w3.org/2000/svg" xmlns:xlink="http://www.w3.org/1999/xlink" version="1.1" id="Layer_1" x="0px" y="0px" viewBox="0 0 469.333 469.333" style="enable-background:new 0 0 469.333 469.333;" xml:space="preserve" width="512px" height="512px">
<g>
	<g>
		<g>
			<path d="M234.667,256h32c5.896,0,10.667-4.771,10.667-10.667c0-5.896-4.771-10.667-10.667-10.667h-32     c-23.531,0-42.667,19.135-42.667,42.667S211.135,320,234.667,320c11.76,0,21.333,9.573,21.333,21.333     s-9.573,21.333-21.333,21.333h-32c-5.896,0-10.667,4.771-10.667,10.667S196.771,384,202.667,384h32     c23.531,0,42.667-19.135,42.667-42.667s-19.135-42.667-42.667-42.667c-11.76,0-21.333-9.573-21.333-21.333     C213.333,265.573,222.906,256,234.667,256z" fill="#f32063"/>
			<path d="M362.667,138.667c0-14.025-9.126-25.839-21.706-30.151c0.113-0.624,0.372-1.193,0.372-1.849     C341.333,47.854,293.479,0,234.667,0S128,47.854,128,106.667c0,0.656,0.259,1.225,0.372,1.849     c-12.579,4.313-21.706,16.126-21.706,30.151c0,13.625,8.596,25.204,20.62,29.813l-20.62,258.188     c0,23.531,19.135,42.667,42.667,42.667H320c23.531,0,42.667-19.135,42.635-43.521l-20.587-257.333     C354.072,163.871,362.667,152.292,362.667,138.667z M224.214,22.391c0.555,5.37,4.938,9.609,10.453,9.609     s9.898-4.24,10.453-9.609C287.202,27.616,320,63.194,320,106.667H149.333C149.333,63.194,182.132,27.616,224.214,22.391z      M320,448H149.333c-11.76,0-21.333-9.573-21.365-20.479l20.548-256.854h172.301l20.516,256C341.333,438.427,331.76,448,320,448z      M330.667,149.333h-192c-5.885,0-10.667-4.781-10.667-10.667S132.781,128,138.667,128h192c5.885,0,10.667,4.781,10.667,10.667     S336.552,149.333,330.667,149.333z" fill="#f32063"/>
			<circle cx="213.333" cy="53.333" r="10.667" fill="#f32063"/>
			<circle cx="256" cy="53.333" r="10.667" fill="#f32063"/>
		</g>
	</g>
</g>
<g>
</g>
<g>
</g>
<g>
</g>
<g>
</g>
<g>
</g>
<g>
</g>
<g>
</g>
<g>
</g>
<g>
</g>
<g>
</g>
<g>
</g>
<g>
</g>
<g>
</g>
<g>
</g>
<g>
</g>
</svg>
