<?xml version="1.0" encoding="iso-8859-1"?>
<!-- Generator: Adobe Illustrator 19.0.0, SVG Export Plug-In . SVG Version: 6.00 Build 0)  -->
<svg xmlns="http://www.w3.org/2000/svg" xmlns:xlink="http://www.w3.org/1999/xlink" version="1.1" id="Layer_1" x="0px" y="0px" viewBox="0 0 480.2 480.2" style="enable-background:new 0 0 480.2 480.2;" xml:space="preserve" width="512px" height="512px">
<g>
	<g>
		<path d="M476.4,226.075L476.4,226.075l-112.6-68.1v-42.6c0-2.6-1.4-5.1-3.6-6.4l-116.3-70.3c-2.4-1.4-5.4-1.4-7.8,0l-116.3,70.3    c-2.2,1.4-3.6,3.8-3.6,6.4v42.6l-112.6,68.1c-2.2,1.4-3.6,3.8-3.6,6.4v124.1c0,2.5,1.2,4.8,3.3,6.2l116.3,78.5    c2.4,1.6,5.6,1.7,8.1,0.2l112.4-67.9l112.4,67.9c1.2,0.7,2.5,1.1,3.9,1.1c1.3,0,2.7-0.4,3.9-1.1l116.3-70.3    c2.2-1.4,3.6-3.8,3.6-6.4v-132.3C480,229.875,478.6,227.375,476.4,226.075z M116.3,420.975L15,352.575v-105.5l101.3,59.9V420.975z     M123.9,294.075L21,233.175l95.4-57.6v64c-0.1,2.4,1.1,4.7,3.2,6.1l41,27.7L123.9,294.075z M232.6,360.475l-101.3,61.2v-114.6    l43.3-24.3l58,39.1V360.475z M232.6,303.875l-101.3-68.3v-106.9l101.3,61.2V303.875z M240,176.875l-101.8-61.5l101.8-61.5    l101.8,61.5L240,176.875z M348.8,128.675v114.8l-101.3,61.2v-114.8L348.8,128.675z M348.7,421.775l-101.3-61.2v-38.4l0.1,0    l59.4-35.9l41.8,21.1V421.775z M356,294.175l-33.9-17.1l38.1-23c2.2-1.4,3.6-3.8,3.6-6.4v-72.2l94.8,57.3L356,294.175z     M465.1,360.575l-101.3,61.2v0v-114.8l101.3-60.6V360.575z" fill="#f32063"/>
	</g>
</g>
<g>
</g>
<g>
</g>
<g>
</g>
<g>
</g>
<g>
</g>
<g>
</g>
<g>
</g>
<g>
</g>
<g>
</g>
<g>
</g>
<g>
</g>
<g>
</g>
<g>
</g>
<g>
</g>
<g>
</g>
</svg>
