<?xml version="1.0" encoding="utf-8"?>
<!-- Generator: Adobe Illustrator 21.0.2, SVG Export Plug-In . SVG Version: 6.00 Build 0)  -->
<svg version="1.1" id="Calque_1" xmlns="http://www.w3.org/2000/svg" xmlns:xlink="http://www.w3.org/1999/xlink" x="0px" y="0px"
	 viewBox="0 0 60 60" style="enable-background:new 0 0 60 60;" xml:space="preserve">
<style type="text/css">
	.st0{fill:#F32063;}
</style>
<g>
	<path class="st0" d="M54.3,8.9c0-4-1.9-4.6-3.1-4.6c-2.1,0-4.5,2.1-8,5c-4.5,3.8-10.1,8.4-14.9,8.4C9.6,17.6,5.7,26,5.7,33
		c0,1.7,0.3,3.1,0.8,4.4c0,0.1,0,0.2,0,0.3c0,3,0.9,5.4,2.8,7.2c4.1,4.1,11.8,4.4,19.5,4.4c0.7,0,1.3,0,2,0c0.6,0,1.3,0,1.9,0
		c9,0,19.2-15,19.3-28.2C53.5,16.6,54.3,12.2,54.3,8.9z M28.3,20.8c6,0,12.1-5.1,17-9.2c2-1.7,4.7-3.9,5.8-4.2
		c0.1,0.2,0.2,0.7,0.2,1.5c0,10.2-9.4,32.6-19.3,32.6c-0.6,0-1.3,0-1.9,0c-0.6,0-1.3,0-1.9,0c-12.5,0-19.2-1.4-19.2-8.5
		C8.8,24.9,15.4,20.8,28.3,20.8z M32.6,46.2c-0.6,0-1.3,0-1.9,0c-7.4,0-15.8,0.1-19.3-3.5c-0.2-0.2-0.4-0.4-0.6-0.7
		c4.7,2.6,11.8,2.6,17.2,2.6c0.6,0,1.3,0,1.9,0c0.6,0,1.3,0,1.9,0c5,0,9.2-3.8,12.3-7.9C40.9,42.2,36.5,46.2,32.6,46.2z"/>
	<path class="st0" d="M21,36.9c3.2,0,5.8-2.2,5.8-4.9s-2.6-4.9-5.8-4.9s-5.8,2.2-5.8,4.9C15.1,34.7,17.8,36.9,21,36.9z M21,30.2
		c1.4,0,2.7,0.8,2.7,1.8c0,1-1.3,1.8-2.7,1.8s-2.7-0.8-2.7-1.8C18.3,31,19.5,30.2,21,30.2z"/>
</g>
</svg>
