<?xml version="1.0" encoding="iso-8859-1"?>
<!-- Generator: Adobe Illustrator 19.0.0, SVG Export Plug-In . SVG Version: 6.00 Build 0)  -->
<svg version="1.1" id="Layer_1" xmlns="http://www.w3.org/2000/svg" xmlns:xlink="http://www.w3.org/1999/xlink" x="0px" y="0px"
	 viewBox="0 0 512 512" style="enable-background:new 0 0 512 512;" xml:space="preserve">
<rect x="9.052" y="107.877" style="fill:#AD653D;" width="494.098" height="374.751"/>
<rect x="57.985" y="156.81" style="fill:#B7E8ED;" width="396.233" height="276.886"/>
<path style="fill:#FD5D65;" d="M191.983,324.428c17.842,7.292,30.422,24.812,30.422,45.28v63.984H100.038v-63.984
	c0-20.468,12.579-37.988,30.422-45.28"/>
<path style="fill:#FEC95B;" d="M381.133,295.13c17.842,7.292,30.422,24.812,30.422,45.28v93.282H289.188V340.41
	c0-20.468,12.579-37.988,30.422-45.28"/>
<path style="fill:#F7CBA4;" d="M143.297,333.761l-20.871-15.163c-12.067-8.767-18.506-23.334-16.867-38.16l2.687-24.296
	c2.985-27.004,25.805-47.441,52.975-47.441l0,0c27.168,0,49.989,20.436,52.975,47.441l2.687,24.296
	c1.639,14.827-4.799,29.393-16.867,38.16l-20.871,15.163C168.455,341.526,153.983,341.526,143.297,333.761z"/>
<g>
	<path style="fill:#AD653D;" d="M161.219,208.702c0,0-5.896,47.441-52.966,47.441C111.236,229.146,134.056,208.702,161.219,208.702z
		"/>
	<path style="fill:#AD653D;" d="M214.197,256.143c-47.071,0-52.978-47.441-52.978-47.441c13.582,0,26.089,5.108,35.566,13.594
		S212.706,242.644,214.197,256.143z"/>
</g>
<path style="fill:#62DCD2;" d="M291.038,394.498c16.04,6.552,27.832,21.387,30.04,39.194H199.475
	c2.208-17.807,13.999-32.642,30.04-39.194"/>
<g>
	<path style="fill:#F7CBA4;" d="M332.448,304.463l-20.87-15.163c-12.067-8.767-18.506-23.334-16.867-38.16l2.687-24.296
		c2.985-27.004,25.805-47.441,52.975-47.441l0,0c27.168,0,49.989,20.436,52.975,47.441l2.685,24.296
		c1.639,14.827-4.799,29.393-16.867,38.16l-20.871,15.163C357.605,312.228,343.134,312.228,332.448,304.463z"/>
	<path style="fill:#F7CBA4;" d="M242.355,403.827l-20.871-15.163c-12.067-8.767-18.506-23.334-16.867-38.16l2.687-24.296
		c2.985-27.004,25.805-47.441,52.975-47.441l0,0c27.168,0,49.989,20.436,52.975,47.441l2.687,24.296
		c1.639,14.827-4.799,29.393-16.867,38.16L278.2,403.827C267.513,411.59,253.041,411.59,242.355,403.827z"/>
</g>
<path style="fill:#415E72;" d="M404.351,235.879h-0.012c-45.101,6.337-103.689-22.39-103.689-22.39
	c7.758-20.11,27.259-34.086,49.72-34.086c13.582,0,26.077,5.108,35.554,13.594c9.476,8.486,15.921,20.349,17.425,33.847
	L404.351,235.879z"/>
<circle style="fill:#FEC95B;" cx="256.107" cy="46.136" r="16.709"/>
<path d="M503.049,98.898H297.33L281.581,44.57c-0.803-13.431-11.954-24.12-25.582-24.12c-13.628,0-24.778,10.689-25.582,24.118
	l-15.75,54.33H8.951c-4.943,0-8.951,4.008-8.951,8.951v374.751c0,4.943,4.008,8.951,8.951,8.951h60.871
	c4.943,0,8.951-4.008,8.951-8.951s-4.008-8.951-8.951-8.951H30.56l31.03-31.03h388.818l31.03,31.03H99.659
	c-4.943,0-8.951,4.008-8.951,8.951s4.008,8.951,8.951,8.951h403.39c4.945,0,8.951-4.008,8.951-8.951V107.849
	C512,102.905,507.994,98.898,503.049,98.898z M463.068,160.488l31.03-31.03v331.53l-31.03-31.03V160.488z M256,38.352
	c4.277,0,7.758,3.48,7.758,7.758s-3.48,7.758-7.758,7.758s-7.758-3.48-7.758-7.758S251.723,38.352,256,38.352z M242.328,67.784
	c3.964,2.51,8.644,3.984,13.672,3.984c5.028,0,9.709-1.475,13.674-3.985l9.019,31.114h-45.384L242.328,67.784z M48.932,429.959
	l-31.03,31.03V129.458l31.03,31.03V429.959z M397.03,252.096c1.283,11.603-3.787,23.073-13.231,29.936l-20.87,15.164
	c-3.793,2.755-8.237,4.129-12.682,4.126c-0.126-0.005-0.252-0.019-0.38-0.019c-0.017,0-0.033,0.002-0.05,0.002
	c-4.287-0.09-8.552-1.451-12.212-4.109l-20.87-15.163c-9.444-6.862-14.514-18.333-13.232-29.936l2.688-24.296
	c0.07-0.636,0.158-1.267,0.254-1.894c16.581,7.003,51.346,19.8,84.024,19.8c1.955,0,3.9-0.062,5.837-0.158L397.03,252.096z
	 M312.706,209.085c7.882-12.555,21.827-20.757,37.563-20.757c22.618,0,41.55,16.935,44.068,39.405
	C363.744,228.918,328.388,215.72,312.706,209.085z M304.253,327.164l2.685,24.294c1.283,11.604-3.787,23.073-13.231,29.936
	l-20.87,15.164c-7.574,5.503-17.749,5.502-25.323,0l0,0l-20.871-15.164c-9.444-6.861-14.514-18.332-13.231-29.935l2.685-24.294
	c2.487-22.503,21.437-39.473,44.079-39.473C282.816,287.691,301.765,304.661,304.253,327.164z M170.262,424.715v-77.263
	c4.949-1.184,9.726-3.341,14.039-6.476l13.33-9.685l-2.012,18.199c-1.847,16.713,4.82,33.242,17.523,44.028
	c-10.267,7.723-17.751,18.695-21.11,31.196H170.262z M210.874,424.715c3.401-8.37,9.598-15.41,17.598-19.864l8.52,6.191l0,0
	c6.934,5.038,15.059,7.556,23.184,7.556c8.125,0,16.25-2.518,23.183-7.557l8.52-6.191c7.999,4.454,14.195,11.494,17.597,19.864
	h-98.602V424.715z M114.354,281.395l1.853-16.764c23.34-2.556,36.552-16.027,43.681-27.516c0.428-0.69,0.835-1.38,1.229-2.068
	c0.394,0.689,0.801,1.378,1.229,2.068c7.129,11.488,20.342,24.959,43.681,27.516l1.853,16.764
	c1.283,11.603-3.787,23.073-13.232,29.936l-20.87,15.163c-3.702,2.69-8.027,4.055-12.366,4.115c-0.035,0-0.068-0.005-0.101-0.005
	c-0.091,0-0.18,0.011-0.27,0.013c-4.412-0.016-8.82-1.388-12.585-4.123l0,0l-20.871-15.164
	C118.142,304.469,113.072,292.998,114.354,281.395z M119.815,245.82c5.026-12.892,15.83-22.718,29.115-26.499
	C145.026,229.009,136.762,241.73,119.815,245.82z M173.304,219.322c13.285,3.781,24.09,13.607,29.116,26.5
	C185.473,241.73,177.209,229.009,173.304,219.322z M129.42,334.791l8.514,6.186l0,0c4.425,3.215,9.339,5.393,14.426,6.557v77.182
	h-43.472v-55.033C108.888,355,116.817,341.785,129.42,334.791z M445.165,424.715h-24.761v-22.952c0-4.943-4.006-8.951-8.951-8.951
	c-4.945,0-8.951,4.008-8.951,8.951v22.952h-74.184c-3.361-12.5-10.843-23.472-21.11-31.195
	c12.703-10.787,19.371-27.314,17.524-44.028l-2.685-24.294c-0.876-7.925-3.208-15.36-6.71-22.054l11.747,8.535
	c4.254,3.09,8.957,5.223,13.832,6.417v14.846c0,4.943,4.007,8.951,8.951,8.951c4.945,0,8.951-4.008,8.951-8.951v-14.665
	c5.161-1.151,10.148-3.338,14.633-6.598l8.515-6.187c12.604,6.994,20.536,20.21,20.536,34.892v31.543
	c0,4.943,4.007,8.951,8.951,8.951c4.945,0,8.951-4.008,8.951-8.951v-31.543c0-18.551-8.728-35.506-23.073-46.253
	c12.683-10.787,19.34-27.301,17.495-44.001l-2.686-24.296c-3.492-31.588-30.091-55.407-61.871-55.407
	c-31.781,0-58.38,23.819-61.871,55.407l-2.688,24.296c-1.059,9.581,0.702,19.092,4.769,27.507c-8.994-5.01-19.34-7.848-30.305-7.848
	c-12.69,0-24.547,3.807-34.444,10.381c-0.024-0.248-0.03-0.495-0.057-0.742l-2.685-24.294
	c-3.492-31.588-30.091-55.408-61.871-55.408s-58.379,23.821-61.871,55.408l-2.685,24.294c-1.846,16.701,4.811,33.217,17.496,44.003
	c-14.344,10.748-23.071,27.701-23.071,46.251v55.033H66.835V165.73h290.608c4.945,0,8.951-4.008,8.951-8.951
	c0-4.943-4.006-8.951-8.951-8.951H61.59l-31.03-31.03h190.803c0.011,0,0.023,0.002,0.033,0.002c0.01,0,0.019-0.002,0.029-0.002
	h69.147c0.01,0,0.019,0.002,0.029,0.002c0.011,0,0.023-0.002,0.033-0.002h190.804l-31.03,31.03h-63.13
	c-4.945,0-8.951,4.008-8.951,8.951c0,4.943,4.006,8.951,8.951,8.951h57.887V424.715z"/>
<circle cx="374.727" cy="254.364" r="8.951"/>
<circle cx="325.794" cy="254.364" r="8.951"/>
<circle cx="284.631" cy="348.064" r="8.951"/>
<circle cx="235.711" cy="348.064" r="8.951"/>
<circle cx="185.585" cy="277.052" r="8.951"/>
<circle cx="136.653" cy="277.052" r="8.951"/>
<g>
</g>
<g>
</g>
<g>
</g>
<g>
</g>
<g>
</g>
<g>
</g>
<g>
</g>
<g>
</g>
<g>
</g>
<g>
</g>
<g>
</g>
<g>
</g>
<g>
</g>
<g>
</g>
<g>
</g>
</svg>
